<svg width="114" height="81" viewBox="0 0 114 81" fill="none" xmlns="http://www.w3.org/2000/svg">
<g clip-path="url(#clip0)">
<path opacity="0.1" d="M38.203 80.455C43.7258 80.455 48.203 79.7389 48.203 78.8555C48.203 77.9721 43.7258 77.256 38.203 77.256C32.6802 77.256 28.2031 77.9721 28.2031 78.8555C28.2031 79.7389 32.6802 80.455 38.203 80.455Z" fill="#9C27B0"/>
<path opacity="0.1" d="M92.5613 80.5C99.4529 80.5 105.04 79.7839 105.04 78.9005C105.04 78.0171 99.4529 77.301 92.5613 77.301C85.6696 77.301 80.0829 78.0171 80.0829 78.9005C80.0829 79.7839 85.6696 80.5 92.5613 80.5Z" fill="#9C27B0"/>
<path opacity="0.1" d="M1.92037 35.0658H12.336V49.2038H2.68289C2.65723 49.3489 2.6326 49.4951 2.60592 49.6412H12.336V61.0432C12.3185 61.0381 12.3031 61.032 12.2867 61.0258C12.0117 60.9175 11.7387 60.803 11.4657 60.6804L11.2912 60.6017C11.0175 60.4729 10.7439 60.3366 10.4702 60.1929C10.3748 60.1428 10.2793 60.0907 10.1849 60.0375C8.6656 59.1899 7.28539 58.116 6.09215 56.8528C6.05725 56.8191 6.02441 56.7833 5.98952 56.7506C5.82327 56.5707 5.66009 56.3888 5.50204 56.2028L5.32758 55.9984C5.1408 55.7705 4.96017 55.5364 4.78468 55.2993C4.75903 55.2645 4.7344 55.2298 4.70771 55.1971C3.99399 54.2115 3.40138 53.1444 2.94253 52.0185C2.92817 51.9848 2.91585 51.948 2.90251 51.9163C2.76157 51.5552 2.63671 51.1906 2.52792 50.8227C2.48071 50.6684 2.43556 50.5161 2.39656 50.3556C2.38219 50.3086 2.36988 50.2626 2.35859 50.2166C1.77567 47.9507 1.70691 45.597 1.70691 43.2595C1.70691 42.9866 1.70691 42.7127 1.70691 42.4419C1.70691 41.4965 1.7182 40.545 1.73462 39.5945C1.73462 39.3481 1.74488 39.1029 1.75001 38.8555C1.76438 38.228 1.78491 37.6004 1.81159 36.9729C1.81775 36.7981 1.82596 36.6244 1.83519 36.4506C1.83519 36.3505 1.84032 36.2503 1.85059 36.1501C1.87522 35.7863 1.89574 35.4255 1.92037 35.0658Z" fill="#9C27B0"/>
<path opacity="0.1" d="M12.336 19.3241H6.62274C7.55146 17.8765 8.56619 16.4854 9.66151 15.1583C10.5102 14.1198 11.4062 13.108 12.336 12.133V19.3241Z" fill="#9C27B0"/>
<path opacity="0.1" d="M12.3359 19.7616V34.6283H1.95319C1.95319 34.5854 1.96037 34.5414 1.96345 34.4985C1.97268 34.381 1.98192 34.2634 1.99218 34.1469C2.00347 34.01 2.01579 33.872 2.02913 33.7381C2.04247 33.6042 2.05684 33.4407 2.07223 33.2925C2.08763 33.1443 2.10199 32.9941 2.11944 32.8459C2.13689 32.6977 2.15228 32.5495 2.17075 32.4023C2.18923 32.2551 2.20565 32.1059 2.22515 31.9587C2.24054 31.8361 2.25696 31.7144 2.27338 31.5918C2.29698 31.4191 2.32162 31.2453 2.3483 31.0736C2.3483 31.0481 2.35548 31.0215 2.35959 30.997C2.5469 29.74 2.80213 28.494 3.12416 27.2644C3.46124 25.9746 3.89169 24.7108 4.41212 23.4829C4.96524 22.1983 5.61287 20.9562 6.34971 19.7667L12.3359 19.7616Z" fill="#9C27B0"/>
<path opacity="0.1" d="M14.8226 35.0647V49.2038H37.069V35.0647H14.8226ZM14.8226 49.6402V61.7822C14.9498 61.8087 15.0761 61.8343 15.2013 61.8558C15.3716 61.8885 15.541 61.9181 15.7144 61.9436C15.7472 61.9488 15.7811 61.9539 15.817 61.9569C15.8848 61.9682 15.9545 61.9774 16.0223 61.9866C16.1937 62.0101 16.364 62.0295 16.5354 62.0448C16.6165 62.053 16.6986 62.0602 16.7807 62.0663L16.9788 62.0816C17.0865 62.0898 17.1932 62.0959 17.299 62.099C17.3646 62.099 17.4303 62.1051 17.498 62.1072C17.5494 62.1072 17.6007 62.1072 17.654 62.1072C17.7074 62.1072 17.7834 62.1072 17.848 62.1072C17.9363 62.1072 18.0245 62.1072 18.1118 62.1072H18.2298C18.318 62.1072 18.4063 62.1072 18.4935 62.099H18.4997C18.5602 62.099 18.6218 62.099 18.6834 62.0908C18.7005 62.0918 18.7176 62.0918 18.7347 62.0908C18.786 62.0908 18.8373 62.0908 18.8866 62.0837H18.9225L19.2663 62.0571C19.3792 62.0469 19.4931 62.0336 19.6081 62.0213L19.842 61.9937C20.794 61.8609 21.7353 61.6614 22.6591 61.3969C24.7343 60.8204 26.7642 60.014 28.8383 59.4233C31.5199 58.6618 34.4828 58.2878 37.0741 59.2189V49.6402H14.8226ZM37.069 19.3241V0.501015C34.6334 0.474736 32.2044 0.758437 29.841 1.34523C24.2078 2.75464 19.1534 5.81159 14.8226 9.71583V19.3231H15.9391V19.7595H14.8226V34.6283H37.069V19.7605H20.5235V19.3241H37.069ZM65.6433 12.9659C64.2496 12.9169 62.8642 12.4774 61.6111 11.7988C59.2148 10.5008 57.3008 8.49652 55.162 6.80503C50.7183 3.28202 45.2073 1.15615 39.5535 0.628772V19.3241H71.3114L71.3904 19.2413L65.6433 12.9659ZM68.5364 12.4549L71.6039 15.8072V11.576C70.5766 11.7027 69.6765 12.0042 68.5405 12.4508L68.5364 12.4549ZM71.6039 64.7972V49.6402H65.0676C65.0501 49.5758 65.0327 49.5104 65.0121 49.445C65.0316 49.5104 65.0481 49.5758 65.0665 49.6402H39.5577V60.6017C39.7999 60.7806 40.039 60.9686 40.276 61.1597C40.5316 61.3641 40.784 61.5798 41.0375 61.7914L41.2931 62.0019C41.4152 62.1041 41.5383 62.2063 41.6625 62.3024C41.9088 62.5013 42.1575 62.6976 42.4086 62.8911C42.5328 62.9933 42.6601 63.0853 42.7863 63.1814C44.7903 64.7072 46.9043 66.0843 49.1112 67.3012C49.6058 67.5738 50.1049 67.8399 50.6085 68.0995C50.9441 68.2701 51.2817 68.4398 51.6204 68.6044C52.1294 68.8517 52.6426 69.0902 53.1598 69.3198C57.9285 71.4516 62.971 72.9145 68.1433 73.6666C69.292 73.8355 70.4452 73.9684 71.6028 74.0652V64.7962H71.7055L71.6039 64.7972ZM39.5577 19.7605V34.6283H71.608V19.7605H39.5577ZM39.5577 35.0647V49.2038H71.608V35.0647H39.5577ZM74.0956 11.5576V16.2774L78.0108 11.9991C76.7136 11.7906 75.4086 11.6417 74.0956 11.5525V11.5576ZM74.0956 35.0698V49.2038H105.268V35.0647L74.0956 35.0698ZM105.155 65.9194L105.264 49.6402H74.0956V74.2277C76.1035 74.3117 78.1145 74.2878 80.1198 74.1561H80.1547C81.1126 74.0962 82.066 74.009 83.0149 73.8945H83.0365C88.0991 73.3077 93.0494 71.9922 97.7326 69.9892L105.155 65.9194ZM111.279 37.393C111.162 37.118 111.04 36.8451 110.916 36.5753C110.684 36.0643 110.439 35.5676 110.186 35.0709H107.754V49.2038H113.904C113.9 45.2014 112.883 41.1132 111.282 37.3879L111.279 37.393ZM107.754 49.6453V63.6474C109.486 61.9937 110.95 60.1019 112.004 57.9393C113.271 55.3351 113.851 52.5152 113.898 49.6433L107.754 49.6453ZM107.754 30.95V34.6293H109.959C109.292 33.3627 108.557 32.1328 107.757 30.9448L107.754 30.95ZM86.613 14.3314C86.4509 14.2701 86.2887 14.2077 86.1255 14.1474C84.4046 13.5145 82.646 12.9882 80.8598 12.5714L74.8684 19.1197L74.7535 19.2413L74.8304 19.3251H96.1542C93.1844 17.2893 89.9827 15.6113 86.6161 14.3263L86.613 14.3314ZM96.7792 19.7657H74.5328L74.0956 20.1643V34.6283H77.9277H77.9339H105.273V27.6222C102.8 24.6435 99.9451 22.0004 96.7823 19.7605L96.7792 19.7657Z" fill="#9C27B0"/>
<path opacity="0.1" d="M12.3359 27.2604V34.6283H1.95319C1.95319 34.5854 1.96037 34.5415 1.96345 34.4985C1.97268 34.381 1.98192 34.2635 1.99218 34.1469C2.00347 34.01 2.01579 33.872 2.02913 33.7381C2.04247 33.6042 2.05684 33.4407 2.07223 33.2925C2.08763 33.1443 2.10199 32.9941 2.11944 32.8459C2.13689 32.6977 2.15228 32.5495 2.17075 32.4023C2.18923 32.2551 2.20565 32.1059 2.22515 31.9587C2.24054 31.8361 2.25696 31.7145 2.27338 31.5918C2.29698 31.4191 2.32162 31.2453 2.3483 31.0736C2.3483 31.0481 2.35548 31.0215 2.35959 30.997C2.5469 29.74 2.80213 28.494 3.12416 27.2644L12.3359 27.2604Z" fill="#9C27B0"/>
<path opacity="0.1" d="M1.92037 35.0658H12.336V49.2038H2.68289C2.65723 49.3489 2.6326 49.4951 2.60592 49.6412H12.336V61.0432C12.3185 61.0381 12.3031 61.032 12.2867 61.0258C12.0117 60.9175 11.7387 60.803 11.4657 60.6804L11.2912 60.6017C11.0175 60.4729 10.7439 60.3366 10.4702 60.1929C10.3748 60.1428 10.2793 60.0907 10.1849 60.0375C8.6656 59.1899 7.28539 58.116 6.09215 56.8528C6.05725 56.8191 6.02441 56.7833 5.98952 56.7506C5.82327 56.5707 5.66009 56.3888 5.50204 56.2028L5.32758 55.9984C5.1408 55.7705 4.96017 55.5364 4.78468 55.2993C4.75903 55.2645 4.7344 55.2298 4.70771 55.1971C3.99399 54.2115 3.40138 53.1444 2.94253 52.0185C2.92817 51.9848 2.91585 51.948 2.90251 51.9163C2.76157 51.5552 2.63671 51.1906 2.52792 50.8227C2.48071 50.6684 2.43556 50.5161 2.39656 50.3556C2.38219 50.3086 2.36988 50.2626 2.35859 50.2166C1.77567 47.9507 1.70691 45.597 1.70691 43.2595C1.70691 42.9866 1.70691 42.7127 1.70691 42.4419C1.70691 41.4965 1.7182 40.545 1.73462 39.5945C1.73462 39.3481 1.74488 39.1029 1.75001 38.8555C1.76438 38.228 1.78491 37.6004 1.81159 36.9729C1.81775 36.7981 1.82596 36.6244 1.83519 36.4506C1.83519 36.3505 1.84032 36.2503 1.85059 36.1501C1.87522 35.7863 1.89574 35.4255 1.92037 35.0658Z" fill="#9C27B0"/>
<path opacity="0.1" d="M22.654 21.8895V34.6283H14.8226V21.8895H15.9391V17.5764H20.5225V21.8895H22.654Z" fill="#9C27B0"/>
<path opacity="0.1" d="M22.654 35.0647H14.8236V49.2028H22.654V35.0647Z" fill="#9C27B0"/>
<path opacity="0.1" d="M14.8226 49.6412H22.654V61.3948C21.7302 61.6592 20.7888 61.8583 19.8369 61.9907L19.6029 62.0193C19.488 62.0326 19.3741 62.0438 19.2612 62.055C19.1483 62.0663 19.0313 62.0745 18.9174 62.0816H18.8815C18.8322 62.0816 18.7788 62.0877 18.7306 62.0888H18.6783C18.6167 62.0888 18.5551 62.0949 18.4935 62.0969C18.4063 62.1021 18.3191 62.1031 18.2298 62.1041C18.1918 62.1041 18.1559 62.1041 18.1179 62.1041C18.0297 62.1041 17.9424 62.1041 17.8542 62.1041H17.6602C17.6079 62.1041 17.5576 62.1041 17.5032 62.1041L17.3051 62.0969C17.2025 62.0969 17.0916 62.0857 16.9849 62.0786L16.7879 62.0642L16.5426 62.0418C16.3702 62.0264 16.1988 62.007 16.0295 61.9835L15.8242 61.9549L15.7216 61.9406C15.5502 61.914 15.3809 61.8854 15.2084 61.8527C15.0822 61.8312 14.957 61.8046 14.8298 61.7791L14.8226 49.6412Z" fill="#9C27B0"/>
<path opacity="0.1" d="M71.608 20.385H65.1507V34.6273H71.608V20.385Z" fill="#9C27B0"/>
<path opacity="0.1" d="M71.609 35.0647V49.2038H39.5577V43.1052H56.6296V46.7028H65.1507V35.0647H71.609Z" fill="#9C27B0"/>
<path opacity="0.1" d="M71.7106 64.8003H71.608V74.0754C70.4517 73.9779 69.2989 73.8454 68.1495 73.6778C62.9747 72.9233 57.93 71.4573 53.1598 69.3218C51.7826 68.7045 50.4334 68.0306 49.1122 67.3002C46.9054 66.0826 44.7911 64.7056 42.7863 63.1803C42.2828 62.796 41.7857 62.4029 41.2951 62.0009C40.9555 61.7219 40.6178 61.4357 40.2761 61.1577C40.039 60.9666 39.7999 60.7785 39.5577 60.5986V49.6412H65.0655C65.0481 49.5758 65.0306 49.5104 65.0122 49.446C65.0317 49.5104 65.0501 49.5758 65.0676 49.6412H71.608V64.7941C71.6429 64.7952 71.6768 64.7982 71.7106 64.8003Z" fill="#9C27B0"/>
<path opacity="0.1" d="M88.449 19.3241H84.2413V18.022H86.1276V14.1434C86.2911 14.2026 86.454 14.2636 86.6161 14.3263V18.022H88.449V19.3241Z" fill="#9C27B0"/>
<path opacity="0.1" d="M98.5865 34.6283H77.9298C77.9298 34.6283 77.9298 34.6283 77.937 34.6334L77.9277 34.6283H74.0956V20.386H75.1814V30.9132H80.1434V24.6787H84.2423V19.7616H88.45V24.6827H92.5489V30.9173H98.5865V34.6283Z" fill="#9C27B0"/>
<path opacity="0.1" d="M74.0956 35.0647V49.2038H98.5865V35.0647H74.0956ZM105.235 65.8469L105.268 54.6554H98.5865V49.6473H74.0956V74.2277C76.1035 74.3117 78.1145 74.2878 80.1198 74.1561H80.1547C81.1126 74.0962 82.066 74.0089 83.0149 73.8945H83.0365C88.0991 73.3077 93.0494 71.9922 97.7326 69.9892" fill="#9C27B0"/>
<path opacity="0.1" d="M108.189 49.6412H113.902C113.852 52.5122 113.273 55.332 112.007 57.9362C110.953 60.0999 109.489 61.9917 107.758 63.6443V54.6503H108.189V49.6412Z" fill="#9C27B0"/>
<path opacity="0.1" d="M113.906 49.2038H108.189V37.3878H111.282C112.883 41.1132 113.9 45.2014 113.906 49.2038Z" fill="#9C27B0"/>
<path opacity="0.1" d="M71.609 24.3444H68.1494V28.8098H71.609V24.3444Z" fill="#9C27B0"/>
<path opacity="0.1" d="M71.609 33.6001H68.1494V34.6283H71.609V33.6001Z" fill="#9C27B0"/>
<path opacity="0.1" d="M71.609 35.0647H68.1494V38.0644H71.609V35.0647Z" fill="#9C27B0"/>
<path opacity="0.1" d="M71.609 42.8558H68.1494V47.3212H71.609V42.8558Z" fill="#9C27B0"/>
<path opacity="0.1" d="M71.609 52.1115H68.1494V56.5768H71.609V52.1115Z" fill="#9C27B0"/>
<path opacity="0.1" d="M71.6079 64.7942C71.6428 64.7942 71.6767 64.7942 71.7106 64.8003H71.6079V65.8377H68.1494V61.3672H71.6079V64.7942Z" fill="#9C27B0"/>
<path opacity="0.1" d="M71.6079 70.6208V74.0703C70.4517 73.9728 69.2988 73.8403 68.1494 73.6727V70.6208H71.6079Z" fill="#9C27B0"/>
<path opacity="0.1" d="M54.3842 48.8757H39.5577V49.2038H54.3842V48.8757Z" fill="#9C27B0"/>
<path opacity="0.1" d="M54.3842 49.6402H39.5577V50.8973H54.3842V49.6402Z" fill="#9C27B0"/>
<path opacity="0.1" d="M54.3842 55.0182H39.5577V57.0399H54.3842V55.0182Z" fill="#9C27B0"/>
<path opacity="0.1" d="M54.3831 61.1608V63.1824H42.7863C42.2827 62.7994 41.7853 62.4063 41.2941 62.0029C40.9544 61.7239 40.6178 61.4377 40.275 61.1608H54.3831Z" fill="#9C27B0"/>
<path opacity="0.1" d="M54.3831 67.3023V69.3218H53.1588C51.7829 68.7038 50.434 68.0296 49.1122 67.2992L54.3831 67.3023Z" fill="#9C27B0"/>
<path opacity="0.1" d="M83.0396 36.4353H80.1208V39.342H83.0396V36.4353Z" fill="#9C27B0"/>
<path opacity="0.1" d="M19.8441 22.8921H16.9254V25.7988H19.8441V22.8921Z" fill="#9C27B0"/>
<path opacity="0.1" d="M19.8441 29.6438H16.9254V32.5505H19.8441V29.6438Z" fill="#9C27B0"/>
<path opacity="0.1" d="M19.8441 36.3954H16.9254V39.3022H19.8441V36.3954Z" fill="#9C27B0"/>
<path opacity="0.1" d="M19.8441 43.1461H16.9254V46.0528H19.8441V43.1461Z" fill="#9C27B0"/>
<path opacity="0.1" d="M19.8441 49.8978H16.9254V52.8044H19.8441V49.8978Z" fill="#9C27B0"/>
<path opacity="0.1" d="M19.8441 56.6494H16.9254V59.5561H19.8441V56.6494Z" fill="#9C27B0"/>
<path opacity="0.1" d="M94.1818 36.4353H91.2631V39.342H94.1818V36.4353Z" fill="#9C27B0"/>
<path opacity="0.1" d="M83.0396 43.605H80.1208V46.5117H83.0396V43.605Z" fill="#9C27B0"/>
<path opacity="0.1" d="M94.1818 43.605H91.2631V46.5117H94.1818V43.605Z" fill="#9C27B0"/>
<path opacity="0.1" d="M83.0396 50.7737H80.1208V53.6804H83.0396V50.7737Z" fill="#9C27B0"/>
<path opacity="0.1" d="M94.1818 50.7737H91.2631V53.6804H94.1818V50.7737Z" fill="#9C27B0"/>
<path opacity="0.1" d="M83.0396 57.9433H80.1208V60.85H83.0396V57.9433Z" fill="#9C27B0"/>
<path opacity="0.1" d="M94.1818 57.9433H91.2631V60.85H94.1818V57.9433Z" fill="#9C27B0"/>
<path opacity="0.1" d="M83.0396 65.113H80.1208V68.0197H83.0396V65.113Z" fill="#9C27B0"/>
<path opacity="0.1" d="M94.1818 65.113H91.2631V68.0197H94.1818V65.113Z" fill="#9C27B0"/>
<path opacity="0.1" d="M80.1208 74.1561V72.2817H83.0385V73.8894L80.1208 74.1561Z" fill="#9C27B0"/>
<path opacity="0.1" d="M2.34729 30.9949V32.6578H12.3359V30.9949H2.34729ZM3.34277 32.5536H2.52791V31.0971H3.34893L3.34277 32.5536ZM4.33722 32.5536H3.51621V31.0971H4.33722V32.5536ZM5.32962 32.5536H4.50861V31.0971H5.32962V32.5536ZM6.32407 32.5536H5.50409V31.0971H6.3251L6.32407 32.5536ZM7.3175 32.5536H6.49648V31.0971H7.3175V32.5536ZM8.31195 32.5536H7.49094V31.0971H8.31195V32.5536ZM9.3064 32.5536H8.48539V31.0971H9.3064V32.5536ZM10.2998 32.5536H9.47881V31.0971H10.2998V32.5536ZM11.2933 32.5536H10.4722V31.0971H11.2933V32.5536ZM12.2867 32.5536H11.4657V31.0971H12.2867V32.5536Z" fill="#9C27B0"/>
<path opacity="0.1" d="M2.34729 35.8333V37.4962H12.3359V35.8333H2.34729ZM3.34277 37.3909H2.52791V35.9386H3.34893L3.34277 37.3909ZM4.33722 37.3909H3.51621V35.9386H4.33722V37.3909ZM5.32962 37.3909H4.50861V35.9386H5.32962V37.3909ZM6.32407 37.3909H5.50409V35.9386H6.3251L6.32407 37.3909ZM7.3175 37.3909H6.49648V35.9386H7.3175V37.3909ZM8.31195 37.3909H7.49094V35.9386H8.31195V37.3909ZM9.3064 37.3909H8.48539V35.9386H9.3064V37.3909ZM10.2998 37.3909H9.47881V35.9386H10.2998V37.3909ZM11.2933 37.3909H10.4722V35.9386H11.2933V37.3909ZM12.2867 37.3909H11.4657V35.9386H12.2867V37.3909Z" fill="#9C27B0"/>
<path opacity="0.1" d="M2.34729 40.6738V42.3397H12.3359V40.6738H2.34729ZM3.34277 42.2314H2.52791V40.778H3.34893L3.34277 42.2314ZM4.33722 42.2314H3.51621V40.778H4.33722V42.2314ZM5.32962 42.2314H4.50861V40.778H5.32962V42.2314ZM6.32407 42.2314H5.50409V40.778H6.3251L6.32407 42.2314ZM7.3175 42.2314H6.49648V40.778H7.3175V42.2314ZM8.31195 42.2314H7.49094V40.778H8.31195V42.2314ZM9.3064 42.2314H8.48539V40.778H9.3064V42.2314ZM10.2998 42.2314H9.47881V40.778H10.2998V42.2314ZM11.2933 42.2314H10.4722V40.778H11.2933V42.2314ZM12.2867 42.2314H11.4657V40.778H12.2867V42.2314Z" fill="#9C27B0"/>
<path opacity="0.1" d="M2.34729 45.5142V47.175H12.3359V45.5142H2.34729ZM3.34277 47.0718H2.52791V45.6174H3.34893L3.34277 47.0718ZM4.33722 47.0718H3.51621V45.6174H4.33722V47.0718ZM5.32962 47.0718H4.50861V45.6174H5.32962V47.0718ZM6.32407 47.0718H5.50409V45.6174H6.3251L6.32407 47.0718ZM7.3175 47.0718H6.49648V45.6174H7.3175V47.0718ZM8.31195 47.0718H7.49094V45.6174H8.31195V47.0718ZM9.3064 47.0718H8.48539V45.6174H9.3064V47.0718ZM10.2998 47.0718H9.47881V45.6174H10.2998V47.0718ZM11.2933 47.0718H10.4722V45.6174H11.2933V47.0718ZM12.2867 47.0718H11.4657V45.6174H12.2867V47.0718Z" fill="#9C27B0"/>
<path opacity="0.1" d="M2.39038 50.3536C2.43041 50.51 2.47556 50.6663 2.52277 50.8207V50.4578H3.34378V51.9112H2.90454C2.91788 51.9449 2.93122 51.9817 2.94456 52.0134H12.3359V50.3536H2.39038ZM4.34029 51.9112H3.51927V50.4578H4.34029V51.9112ZM5.33269 51.9112H4.51167V50.4578H5.33269V51.9112ZM6.32714 51.9112H5.50407V50.4578H6.32509L6.32714 51.9112ZM7.32057 51.9112H6.49955V50.4578H7.32057V51.9112ZM8.31502 51.9112H7.494V50.4578H8.31502V51.9112ZM9.30947 51.9112H8.48846V50.4578H9.30947V51.9112ZM10.3029 51.9112H9.48188V50.4578H10.3029V51.9112ZM11.2963 51.9112H10.4753V50.4578H11.2963V51.9112ZM12.2897 51.9112H11.4687V50.4578H12.2897V51.9112Z" fill="#9C27B0"/>
<path opacity="0.1" d="M4.70972 55.194C4.73537 55.2267 4.76 55.2635 4.78669 55.2962H5.32958V55.9943C5.38808 56.0638 5.44555 56.1333 5.50507 56.1987V55.2921H6.32609V56.7506H5.99358C6.02642 56.7843 6.05823 56.8201 6.0962 56.8528H12.339V55.194H4.70972ZM7.31746 56.7506H6.49645V55.2983H7.31746V56.7506ZM8.31191 56.7506H7.4909V55.2983H8.31191V56.7506ZM9.30637 56.7506H8.48535V55.2983H9.30637V56.7506ZM10.2998 56.7506H9.47878V55.2983H10.2998V56.7506ZM11.2932 56.7506H10.4722V55.2983H11.2932V56.7506ZM12.2866 56.7506H11.4656V55.2983H12.2866V56.7506Z" fill="#9C27B0"/>
<path opacity="0.1" d="M10.189 60.0334C10.2824 60.0866 10.3778 60.1357 10.4743 60.1888V60.1377H11.2953V60.5976L11.4697 60.6784V60.1377H12.2908V61.0218C12.3065 61.0296 12.323 61.0357 12.34 61.0402V60.0334H10.189Z" fill="#9C27B0"/>
<path opacity="0.1" d="M77.9298 34.6283H77.936H77.9298ZM71.608 64.7931H71.7106H71.608ZM65.0122 49.445C65.0317 49.5104 65.0481 49.5758 65.0666 49.6402C65.0502 49.5758 65.0327 49.5104 65.0122 49.445ZM77.9298 34.6253H77.936H77.9298ZM15.9433 19.3211V19.7575H20.5276V19.3211H15.9433ZM71.608 64.7931H71.7106H71.608ZM65.0122 49.445C65.0317 49.5104 65.0481 49.5758 65.0666 49.6402C65.0502 49.5758 65.0327 49.5104 65.0122 49.445ZM77.9298 34.6253H77.936H77.9298ZM71.608 64.7901H71.7106H71.608ZM65.0122 49.445C65.0317 49.5104 65.0481 49.5758 65.0666 49.6402C65.0502 49.5758 65.0327 49.5104 65.0122 49.445Z" fill="#9C27B0"/>
<path d="M47.8725 39.3042C47.8725 39.3042 47.4681 39.248 47.4681 38.6613C47.4681 38.0747 47.1787 36.979 47.1787 36.979C47.1787 36.9739 46.9283 35.0709 46.5825 34.7683C46.2366 34.4658 45.7922 32.6895 45.7922 32.6895C45.7922 32.6895 45.7163 31.7257 45.5613 31.5182C45.4064 31.3107 45.197 30.8028 44.8881 30.0782C44.5792 29.3535 43.2912 28.8517 43.2912 28.8517C43.2912 28.8517 40.9626 27.5067 40.3027 27.0682C40.2428 27.0322 40.1867 26.9901 40.1355 26.9425C40.0205 26.7923 39.5197 26.7892 39.5197 26.7892C39.4674 26.4601 39.4171 26.0819 39.4007 25.7395C39.4007 25.7028 39.4007 25.666 39.3955 25.6292C40.1313 25.196 40.6856 24.513 40.9565 23.7057C40.9688 23.6668 40.9791 23.6259 40.9903 23.5871C41.0344 23.5726 41.075 23.5492 41.1095 23.5182C41.1439 23.4872 41.1715 23.4494 41.1905 23.4072C41.25 23.2754 41.251 23.1211 41.3249 22.9984C41.4111 22.8533 41.5753 22.7756 41.7046 22.6662C42.031 22.3903 42.1151 21.9253 42.0997 21.5021C42.0895 21.1597 42.0341 20.8143 42.0556 20.4739L42.0618 20.3881C42.0679 20.337 42.0751 20.2859 42.0843 20.2368C42.1346 19.9834 42.2444 19.7442 42.306 19.4928C42.3676 19.2413 42.3737 18.9582 42.2301 18.7416C42.0197 18.4237 41.5815 18.3603 41.1966 18.3276C40.7605 18.2908 40.3705 18.3389 40.0913 17.9781C39.9607 17.7895 39.8137 17.6127 39.6521 17.4497C39.5946 17.3965 39.0363 17.0572 39.0363 17.0347C38.4914 16.7834 37.8738 16.7362 37.2968 16.9019C37.0074 16.9857 36.7344 17.1226 36.4409 17.1911C35.8077 17.3403 35.079 17.1788 34.5413 17.5396C34.2416 17.744 34.062 18.0691 33.8937 18.3859C33.7569 18.6469 33.618 18.9075 33.477 19.1678C33.2502 19.596 33.0193 20.0314 32.9239 20.5056C32.9038 20.6088 32.8915 20.7134 32.8869 20.8184V20.8235C32.8869 20.8613 32.8869 20.8991 32.8869 20.9369V20.985C32.8869 21.0207 32.8869 21.0555 32.8931 21.0872C32.8993 21.1189 32.8982 21.1291 32.9013 21.1505C32.9044 21.172 32.9095 21.22 32.9157 21.2527C32.9218 21.2854 32.9341 21.3427 32.9465 21.3877C32.9516 21.4071 32.9588 21.4255 32.9649 21.4439C32.9752 21.4786 32.9875 21.5123 33.0008 21.5461C33.008 21.5634 33.0152 21.5818 33.0234 21.5992C33.0388 21.635 33.0573 21.6697 33.0758 21.7014C33.084 21.7157 33.0901 21.729 33.0983 21.7423C33.127 21.7898 33.1585 21.8356 33.1928 21.8793C33.4124 22.1521 33.7357 22.3259 33.9748 22.5814C33.9748 22.5916 33.9748 22.6018 33.9748 22.611C33.9748 22.6397 33.9748 22.6673 33.9748 22.6959C33.9875 23.2657 34.1398 23.8239 34.4184 24.3217C34.6971 24.8196 35.0937 25.2421 35.5737 25.5525C35.5737 25.5913 35.5788 25.6312 35.5809 25.67C35.6009 25.9734 35.5971 26.2779 35.5696 26.5807C35.5278 26.5317 35.4755 26.4926 35.4165 26.4665C35.3575 26.4403 35.2934 26.4276 35.2289 26.4294C35.1848 26.4273 35.1406 26.4311 35.0975 26.4407L35.0883 26.4335V26.4427C34.8625 26.4979 34.5844 26.732 34.3186 27.3973C34.3186 27.3973 33.5099 28.3049 32.8941 28.2671C32.2784 28.2293 30.7195 29.2115 30.7195 29.2115C30.7195 29.2115 29.1985 30.1947 28.8722 31.1963C28.6898 31.7642 28.4711 32.32 28.2174 32.8602L26.3373 36.7184L25.9904 39.7795C25.9904 39.7795 26.1823 41.1408 26.1444 41.3483C26.1064 41.5558 26.9336 43.4272 26.9336 43.4272C26.9336 43.4272 29.6665 48.2093 30.7831 48.4546L30.8631 48.3984C30.9109 48.4233 30.9616 48.4421 31.014 48.4546L31.2439 48.2931C31.2577 48.4731 31.2518 48.6541 31.2264 48.8328C31.0725 49.305 31.2839 52.3865 31.5528 52.9905C31.8217 53.5945 31.7262 61.5144 31.7262 61.5144L31.6883 62.2135C31.6883 62.2135 31.6883 62.236 31.6975 62.2748L31.6883 62.4404L31.716 62.4547C31.7447 62.6764 31.7354 62.9014 31.6883 63.12C31.5918 63.4266 31.5528 64.2933 31.5528 64.2933C31.5528 64.2933 30.7841 69.1869 31.1484 70.1701C31.5128 71.1534 31.8227 72.2306 31.8227 72.2306C31.8227 72.2306 32.2075 73.4571 31.8412 73.6666C31.4748 73.8761 30.4331 74.2277 30.6476 74.7387C30.8426 75.2109 31.5825 76.4762 31.6924 76.6612L31.6831 76.7583L31.5323 78.3864C31.5567 78.6014 31.6152 78.8111 31.7057 79.0078C31.8709 79.3625 32.1922 79.7304 32.8028 79.6905C32.9054 79.6834 33.0245 79.6711 33.1394 79.6558C34.257 79.5066 35.6332 79.0099 35.6332 79.0099C35.5618 78.9647 35.4963 78.9108 35.4382 78.8494C35.3833 78.7964 35.3398 78.7328 35.3103 78.6625C35.2808 78.5923 35.2661 78.5167 35.2668 78.4406C35.2833 78.1442 34.726 76.7317 34.5875 76.3842C34.5659 76.3341 34.5546 76.3055 34.5546 76.3055C34.5546 76.3055 35.8251 74.983 35.6137 73.8107C35.6137 73.8107 34.2077 72.993 34.6706 72.5444C35.1334 72.0957 35.9606 70.8069 35.9606 70.8069C35.9606 70.8069 35.9986 65.9879 35.9606 65.2684C35.921 64.769 35.9448 64.2666 36.0314 63.7731C36.0468 63.6985 36.0653 63.6259 36.0848 63.5544C36.7249 63.6496 37.3711 63.6984 38.0183 63.7006C38.2543 63.7006 38.4945 63.7006 38.7367 63.6862C38.7367 63.7544 38.7397 63.828 38.7459 63.907C38.7993 65.1008 38.8988 67.1939 38.9799 67.9717C39.0948 69.0868 39.7301 72.0916 39.7301 72.0916C39.7301 72.0916 38.5181 72.8663 39.9415 74.7755C39.9415 74.7755 39.9415 75.4674 39.8471 75.5676C39.7463 75.895 39.6651 76.2281 39.6039 76.5651C39.5443 76.9249 39.5197 77.2887 39.6162 77.4778C39.8471 77.9295 41.2325 77.8927 41.2325 77.8927L41.2664 77.8866C41.528 77.8597 41.7923 77.8848 42.044 77.9604C42.2958 78.036 42.53 78.1607 42.7329 78.3271C43.2594 78.7482 45.2576 78.5632 46.3392 78.4293C46.7631 78.3762 47.0463 78.3271 47.0463 78.3271C47.0601 78.2793 47.0649 78.2295 47.0607 78.1799C47.0494 77.9152 46.8411 77.3347 45.4289 76.8165C45.4289 76.8165 44.101 75.9273 44.1194 75.1526H44.0917H43.9378C44.0496 75.1465 44.1215 75.1526 44.1215 75.1526C44.1215 75.1526 43.6012 73.2618 43.8136 73.1085C44.026 72.9552 43.3898 70.86 43.3898 70.86C43.3898 70.86 43.0254 67.3442 43.0059 67.0979C43.0067 66.8865 43.0389 66.6764 43.1014 66.4744L43.0059 64.5468C43.0059 64.5468 42.9875 63.906 43.0059 63.6975C43.0028 63.5165 42.9881 63.3359 42.9618 63.1568C42.9526 63.0853 42.9433 63.0107 42.9331 62.9371C43.4308 62.8114 43.7541 62.6949 43.7541 62.6949L43.6966 55.9851C44.1194 55.1675 44.1974 53.3738 44.1954 52.1013C44.1954 51.2837 44.1584 50.6786 44.1584 50.6786L44.7362 49.7393C44.7362 49.7393 44.8696 48.6151 44.6582 48.3688C44.5648 48.2574 44.6069 48.1419 44.6839 48.0468C44.7239 48.0153 44.766 47.9866 44.8101 47.961C44.8101 47.961 44.8039 47.9518 44.7968 47.9385C44.8371 47.9049 44.88 47.8745 44.9251 47.8475C44.9251 47.8475 44.7198 47.5307 44.9035 47.3968C45.0759 47.5133 45.2299 47.6012 45.3468 47.6728C45.3386 47.7474 45.3304 47.7903 45.3304 47.7903L45.3797 47.6881C45.4926 47.7515 45.5613 47.7903 45.5613 47.7903C45.5613 47.7903 46.4665 45.9945 46.447 45.7298C46.4275 45.4651 47.0628 44.3501 47.0628 44.3501C47.0628 44.3501 47.1397 43.7644 47.4866 43.5191C47.8335 43.2738 47.7555 41.4965 47.7555 41.4965C47.7555 41.4965 47.852 40.5705 48.0829 40.1924C48.3138 39.8142 47.8725 39.3042 47.8725 39.3042ZM30.5532 38.5162L30.5706 38.9444C30.468 38.7799 30.3941 38.6613 30.3941 38.6613L30.5532 38.5162Z" fill="url(#paint0_linear)"/>
<path d="M45.6106 47.0145L45.3889 47.9548C45.3889 47.9548 43.6135 47.0524 43.2933 45.9056C42.9731 44.7589 43.829 44.3235 43.829 44.3235L45.4833 45.0216L45.6106 47.0145Z" fill="white"/>
<path opacity="0.1" d="M45.6106 47.0145L45.3889 47.9548C45.3889 47.9548 43.6135 47.0524 43.2933 45.9056C42.9731 44.7589 43.829 44.3235 43.829 44.3235L45.4833 45.0216L45.6106 47.0145Z" fill="black"/>
<path d="M35.6466 79.016C35.6466 79.016 34.0045 79.617 32.8756 79.6926C32.2763 79.7324 31.9612 79.3666 31.7991 79.0139C31.7105 78.8179 31.6534 78.6093 31.6298 78.3956L31.7765 76.7757L31.8545 75.913L34.2529 75.2927L34.5926 76.327L34.6244 76.4057C34.7609 76.7511 35.3079 78.1564 35.2915 78.4498C35.2908 78.5249 35.3054 78.5994 35.3343 78.6687C35.3632 78.7381 35.4059 78.8009 35.4598 78.8535C35.5149 78.9153 35.5776 78.9699 35.6466 79.016Z" fill="white"/>
<path d="M46.8627 78.1922C46.8668 78.2414 46.8619 78.2909 46.8483 78.3384C46.8483 78.3384 43.3364 78.922 42.618 78.3384C42.4155 78.1679 42.1794 78.0414 41.9249 77.9672C41.6704 77.8929 41.4031 77.8724 41.1402 77.9071C41.1402 77.9071 39.7814 77.9439 39.5546 77.4982C39.4602 77.3112 39.4848 76.9484 39.5433 76.5907C39.603 76.2555 39.6825 75.9241 39.7814 75.5982L39.8358 75.5553L40.1591 75.2967L43.944 75.1853H43.9727C43.9542 75.956 45.2576 76.84 45.2576 76.84C46.642 77.3511 46.8462 77.9285 46.8627 78.1922Z" fill="white"/>
<path opacity="0.1" d="M46.8627 78.1922C46.8662 78.2415 46.861 78.2909 46.8473 78.3384C46.8473 78.3384 43.3364 78.922 42.618 78.3384C42.4156 78.168 42.1797 78.0417 41.9254 77.9674C41.6711 77.8931 41.404 77.8726 41.1412 77.9071C41.1412 77.9071 39.7814 77.9439 39.5556 77.4983C39.4612 77.3102 39.4848 76.9484 39.5433 76.5907C40.0667 76.6428 40.8929 76.7726 41.2172 77.0823C41.7077 77.5534 42.539 78.0236 43.049 78.0604C43.4483 78.0859 45.8364 78.1616 46.8627 78.1922Z" fill="black"/>
<path opacity="0.1" d="M35.6466 79.016C35.6466 79.016 34.0045 79.6169 32.8756 79.6926C32.2763 79.7324 31.9612 79.3665 31.8001 79.0129C32.2178 79.1529 32.7976 79.3001 33.1024 79.1652C33.4637 79.0058 34.7445 78.9025 35.4629 78.8586C35.5175 78.9182 35.5792 78.971 35.6466 79.016Z" fill="black"/>
<path d="M38.0829 30.5861C36.7282 30.0618 34.9856 28.3294 35.4207 27.52C35.5174 27.3157 35.5748 27.0952 35.5901 26.8699C35.6181 26.5641 35.6222 26.2566 35.6024 25.9501C35.5719 25.4482 35.5112 24.9485 35.4207 24.4538C35.4207 24.4538 39.65 24.5489 39.4037 25.1692C39.3319 25.3512 39.3206 25.667 39.3401 26.0206C39.3596 26.3742 39.4109 26.7739 39.4642 27.1122C39.5381 27.5762 39.612 27.9298 39.612 27.9298C39.612 27.9298 39.3534 28.2906 39.2015 28.31C39.0496 28.3294 40.0266 31.3332 38.0829 30.5861Z" fill="#CF6F80"/>
<path opacity="0.1" d="M34.6213 76.4057L34.5895 76.4404C33.3252 74.9176 31.796 76.8155 31.796 76.8155L31.7734 76.7757L31.8514 75.913L34.2498 75.2927L34.5895 76.327L34.6213 76.4057Z" fill="black"/>
<path opacity="0.1" d="M43.9737 75.2926C43.9737 75.2926 43.0501 75.2732 42.5575 75.7066C42.0649 76.1399 39.6839 75.8006 39.7865 75.7066C39.817 75.66 39.8353 75.6066 39.8399 75.5512L40.1632 75.2926L43.9481 75.1812C43.9624 75.2497 43.9737 75.2926 43.9737 75.2926Z" fill="black"/>
<path d="M36.1946 63.3336C36.1258 63.503 36.0736 63.6786 36.0386 63.8579C35.953 64.3491 35.9293 64.849 35.9678 65.346C36.0058 66.0615 35.9678 70.8559 35.9678 70.8559C35.9678 70.8559 35.156 72.1345 34.7035 72.5852C34.2509 73.036 35.6271 73.8454 35.6271 73.8454C35.8323 75.0106 34.5885 76.327 34.5885 76.327C33.3242 74.8041 31.795 76.7031 31.795 76.7031C31.795 76.7031 30.9637 75.2722 30.7564 74.7612C30.5491 74.2501 31.5682 73.8965 31.9264 73.689C32.2845 73.4816 31.9089 72.2582 31.9089 72.2582C31.9089 72.2582 31.6062 71.186 31.247 70.2079C30.8878 69.2298 31.6431 64.3608 31.6431 64.3608C31.6431 64.3608 31.6821 63.4961 31.7755 63.1946C31.8226 62.9771 31.832 62.7531 31.8032 62.5323C31.7971 62.4577 31.7899 62.3954 31.7847 62.3535C31.7796 62.3116 31.7755 62.2922 31.7755 62.2922L31.7899 62.2676L32.303 61.3151C32.303 61.3151 36.4409 62.7337 36.1946 63.3336Z" fill="#9C27B0"/>
<path d="M43.9737 75.1802C43.9737 75.1802 43.0501 75.1608 42.5575 75.5891C42.0648 76.0173 39.6839 75.6831 39.7865 75.5891C39.8892 75.495 39.881 74.799 39.881 74.799C38.4842 72.9 39.6757 72.1294 39.6757 72.1294C39.6757 72.1294 39.0517 69.1399 38.9389 68.031C38.8598 67.2563 38.7623 65.1744 38.71 63.9857C38.6874 63.4747 38.6741 63.1231 38.6741 63.1231L39.8153 62.8942L39.962 62.8645L42.7145 62.3147C42.7145 62.3147 42.7904 62.8257 42.8417 63.2437C42.8673 63.4222 42.8817 63.6021 42.8848 63.7823C42.8664 63.9867 42.8848 64.6265 42.8848 64.6265L42.9782 66.5449C42.9172 66.7462 42.8858 66.9551 42.8848 67.1653C42.9033 67.4096 43.2615 70.907 43.2615 70.907C43.2615 70.907 43.8844 72.9941 43.672 73.1443C43.4595 73.2946 43.9737 75.1802 43.9737 75.1802Z" fill="#9C27B0"/>
<path opacity="0.1" d="M39.4037 25.1692C39.3319 25.3512 39.3206 25.667 39.3401 26.0206C38.7736 26.3603 38.1224 26.534 37.4612 26.5217C36.8001 26.5094 36.1558 26.3117 35.6024 25.9511C35.572 25.4488 35.5113 24.9488 35.4208 24.4538C35.4208 24.4538 39.65 24.5468 39.4037 25.1692Z" fill="black"/>
<path d="M41.0386 22.9105C41.0394 23.2788 40.9812 23.6449 40.8662 23.9949C40.6091 24.7792 40.0818 25.4477 39.3776 25.8823C38.6735 26.3169 37.8377 26.4896 37.018 26.3698C36.1984 26.2501 35.4476 25.8456 34.8984 25.2279C34.3492 24.6103 34.037 23.8191 34.0169 22.9943C34.0169 22.9657 34.0169 22.9391 34.0169 22.9105C34.0089 22.4463 34.0938 21.9851 34.2667 21.5538C34.4396 21.1226 34.697 20.73 35.0238 20.3989C35.3507 20.0678 35.7405 19.8048 36.1704 19.6252C36.6004 19.4457 37.062 19.3533 37.5282 19.3533C37.9945 19.3533 38.4561 19.4457 38.886 19.6252C39.316 19.8048 39.7058 20.0678 40.0327 20.3989C40.3595 20.73 40.6169 21.1226 40.7898 21.5538C40.9626 21.9851 41.0476 22.4463 41.0396 22.9105H41.0386Z" fill="#CF6F80"/>
<path opacity="0.1" d="M38.0829 30.5861C36.7282 30.0618 34.9856 28.3294 35.4207 27.52C35.5174 27.3157 35.5748 27.0952 35.5901 26.8699L37.4445 28.3877L38.5919 29.3249L39.4642 27.1132C39.5381 27.5772 39.612 27.9308 39.612 27.9308C39.612 27.9308 39.3534 28.2916 39.2015 28.311C39.0496 28.3304 40.0266 31.3332 38.0829 30.5861Z" fill="black"/>
<path d="M42.8787 37.2938L41.3301 63.2028L39.3104 63.3347L34.0805 48.3115L34.9385 30.4757L35.1191 26.7074L37.4446 28.6095L38.593 29.5467L39.491 27.2706L41.1607 28.7198L42.8787 37.2938Z" fill="#9C27B0"/>
<path opacity="0.1" d="M36.1946 63.3336C36.1258 63.503 36.0735 63.6786 36.0386 63.858C34.569 63.632 33.1416 63.1879 31.8042 62.5405L31.7765 62.5262L31.7857 62.3617L31.7909 62.2758L32.304 61.3233C32.304 61.3233 36.4409 62.7337 36.1946 63.3336Z" fill="black"/>
<path opacity="0.1" d="M39.8388 63.862C39.4631 63.9257 39.0842 63.9687 38.7038 63.9908C38.6812 63.4798 38.6678 63.1282 38.6678 63.1282L39.8091 62.8993L39.8388 63.862Z" fill="black"/>
<path opacity="0.1" d="M42.8356 63.2488C42.1059 63.4379 40.9791 63.6505 39.9702 63.5176L39.9559 62.8696L42.7083 62.3198C42.7083 62.3198 42.7843 62.8257 42.8356 63.2488Z" fill="black"/>
<path opacity="0.1" d="M39.9517 63.6362C35.744 64.3516 31.8904 62.3003 31.8904 62.3003L31.9273 61.6053C31.9273 61.6053 32.0228 53.7264 31.758 53.1223C31.4932 52.5183 31.2869 49.4552 31.4368 48.9851C31.5866 48.5149 30.8898 41.4648 30.8898 41.4648L30.7769 38.6031L26.6451 36.9361L28.4924 33.1014C28.7419 32.5637 28.9565 32.0107 29.1349 31.4457C29.4561 30.4502 30.9473 29.4721 30.9473 29.4721C30.9473 29.4721 32.4764 28.495 33.0809 28.5318C33.6853 28.5686 34.4776 27.6671 34.4776 27.6671C35.0626 26.1821 35.5921 26.8546 35.5921 26.8546C35.5921 26.9251 35.5921 26.8546 35.5634 27.0743C35.3581 28.7045 38.8824 33.8556 38.9326 33.9466L39.2682 42.0883L39.6079 52.3916L39.9517 63.6362Z" fill="black"/>
<path d="M39.8388 63.6361C35.6311 64.3516 31.7765 62.3003 31.7765 62.3003L31.8144 61.6053C31.8144 61.6053 31.9099 53.7263 31.6441 53.1223C31.3783 52.5183 31.173 49.4552 31.3239 48.9851C31.4748 48.5149 30.7769 41.4648 30.7769 41.4648L30.663 38.6031L26.5292 36.93L28.3765 33.0952C28.6254 32.5574 28.84 32.0044 29.0189 31.4395C29.3391 30.444 30.8313 29.4659 30.8313 29.4659C30.8313 29.4659 32.3604 28.4889 32.9639 28.5257C33.5673 28.5624 34.3606 27.661 34.3606 27.661C34.9466 26.176 35.5921 26.8485 35.5921 26.8485C35.5921 26.919 35.5306 26.9507 35.5634 27.0682C36.015 28.6493 38.7695 33.8495 38.8197 33.9405L39.1594 42.0821L39.4991 52.3854L39.8388 63.6361Z" fill="white"/>
<path opacity="0.1" d="M38.7048 34.1725C38.2523 33.9844 35.8549 31.2586 35.8549 31.2586V30.6382C35.7677 30.4338 35.2494 30.5585 34.8286 30.7016L35.0092 26.9333L35.2145 27.103C35.664 28.683 38.6525 34.0815 38.7048 34.1725Z" fill="black"/>
<path d="M38.8188 33.9466C38.3652 33.7586 35.9678 31.0327 35.9678 31.0327V30.4124C35.8806 30.208 35.3623 30.3326 34.9415 30.4757L35.1232 26.7074L35.3284 26.8771C35.779 28.4572 38.7685 33.8567 38.8188 33.9466Z" fill="white"/>
<path opacity="0.1" d="M31.8904 47.5409C31.9468 47.5409 34.8163 47.2404 34.8163 47.2404C34.8163 47.2404 36.5537 50.6428 36.4398 51.4707C36.3259 52.2986 36.1196 53.0314 35.4207 52.9016C34.7219 52.7718 31.6595 53.0038 31.6595 53.0038L31.8904 47.5409Z" fill="black"/>
<path d="M31.7765 47.315C31.8329 47.315 34.7024 47.0146 34.7024 47.0146C34.7024 47.0146 36.4388 50.418 36.3259 51.2448C36.2131 52.0717 36.0047 52.8055 35.3069 52.6757C34.609 52.5459 31.5456 52.7779 31.5456 52.7779L31.7765 47.315Z" fill="white"/>
<path d="M33.9389 45.7176C33.9389 45.7176 36.5723 47.127 36.6287 47.5572C36.6851 47.9875 35.2884 47.3692 34.9867 47.2946C34.7881 47.2469 34.5859 47.2155 34.3822 47.2006L32.3697 47.2547L33.9389 45.7176Z" fill="#CF6F80"/>
<path opacity="0.1" d="M37.97 34.3483C38.1231 34.3483 38.2471 34.2247 38.2471 34.0723C38.2471 33.9199 38.1231 33.7964 37.97 33.7964C37.817 33.7964 37.6929 33.9199 37.6929 34.0723C37.6929 34.2247 37.817 34.3483 37.97 34.3483Z" fill="black"/>
<path d="M37.97 34.2359C38.1231 34.2359 38.2471 34.1123 38.2471 33.9599C38.2471 33.8075 38.1231 33.6839 37.97 33.6839C37.817 33.6839 37.6929 33.8075 37.6929 33.9599C37.6929 34.1123 37.817 34.2359 37.97 34.2359Z" fill="#3F3D56"/>
<path opacity="0.1" d="M38.4801 46.294C38.6331 46.294 38.7572 46.1704 38.7572 46.018C38.7572 45.8656 38.6331 45.7421 38.4801 45.7421C38.3271 45.7421 38.203 45.8656 38.203 46.018C38.203 46.1704 38.3271 46.294 38.4801 46.294Z" fill="black"/>
<path d="M38.4801 46.1806C38.6331 46.1806 38.7572 46.057 38.7572 45.9046C38.7572 45.7522 38.6331 45.6286 38.4801 45.6286C38.3271 45.6286 38.203 45.7522 38.203 45.9046C38.203 46.057 38.3271 46.1806 38.4801 46.1806Z" fill="#3F3D56"/>
<path opacity="0.1" d="M38.2461 40.3211C38.3991 40.3211 38.5232 40.1976 38.5232 40.0452C38.5232 39.8928 38.3991 39.7692 38.2461 39.7692C38.0931 39.7692 37.969 39.8928 37.969 40.0452C37.969 40.1976 38.0931 40.3211 38.2461 40.3211Z" fill="black"/>
<path d="M38.2461 40.2087C38.3991 40.2087 38.5232 40.0852 38.5232 39.9328C38.5232 39.7803 38.3991 39.6568 38.2461 39.6568C38.0931 39.6568 37.969 39.7803 37.969 39.9328C37.969 40.0852 38.0931 40.2087 38.2461 40.2087Z" fill="#3F3D56"/>
<path d="M44.6336 47.1433C44.6336 47.1433 44.8224 47.4254 44.6336 47.5573C44.4448 47.6891 44.6521 48.008 44.6521 48.008C44.6521 48.008 44.181 48.2829 44.3883 48.5303C44.5956 48.7776 44.4643 49.8947 44.4643 49.8947L43.8978 50.8288C43.8978 50.8288 43.9316 51.4308 43.9337 52.2444C43.9337 53.5138 43.8588 55.2983 43.4441 56.1118L43.5016 62.7868C43.5016 62.7868 41.5178 63.5084 39.8573 63.2887L39.611 52.5776C39.611 52.5776 39.9702 46.5035 40.1026 45.3384C40.1801 44.7335 40.2117 44.1236 40.197 43.514C40.197 43.514 40.1406 41.6907 39.9507 40.8444C39.9507 40.8444 39.7455 37.1783 39.725 36.1634C39.7157 35.678 39.7414 34.2614 39.7701 32.9143C39.8019 31.4416 39.8378 30.0526 39.8378 30.0526L39.4633 27.1009C39.4633 27.1009 39.8378 27.0631 39.9507 27.2133C40.0013 27.2604 40.0563 27.3025 40.1149 27.3391C40.7615 27.7744 43.046 29.1133 43.046 29.1133C43.046 29.1133 44.3103 29.6141 44.6131 30.3316C44.9158 31.0491 45.1262 31.5581 45.273 31.7625C45.4197 31.9669 45.4998 32.9276 45.4998 32.9276C45.4998 32.9276 45.9349 34.6958 46.2746 34.9952C46.6143 35.2947 46.8626 37.1998 46.8626 37.1998L43.8608 39.5505C43.8608 39.5505 43.5971 43.4609 43.5406 43.6121C43.4842 43.7634 44.6336 47.1433 44.6336 47.1433Z" fill="white"/>
<path d="M44.7475 47.1433C44.7475 47.1433 44.9353 47.4254 44.7475 47.5573C44.5597 47.6891 44.7649 48.008 44.7649 48.008C44.7649 48.008 44.297 48.286 44.5022 48.5333C44.7075 48.7807 44.5781 49.8978 44.5781 49.8978L44.0117 50.8319C44.0117 50.8319 44.0455 51.4339 44.0486 52.2475C44.0486 53.5168 43.9737 55.3013 43.5591 56.1149L43.6155 62.7899C43.6155 62.7899 41.6287 63.5115 39.9702 63.2917L39.7249 52.5806C39.7249 52.5806 40.0841 46.5066 40.2165 45.3415C40.2941 44.7366 40.3253 44.1267 40.3099 43.5171C40.3099 43.5171 40.2535 41.6938 40.0646 40.8475C40.0646 40.8475 39.8594 37.1814 39.8378 36.1665C39.8286 35.681 39.8553 34.2645 39.883 32.9174C39.9148 31.4446 39.9507 30.0557 39.9507 30.0557L39.4561 27.0641C39.4561 27.0641 39.9507 27.0641 40.0646 27.2164C40.1147 27.264 40.1698 27.3062 40.2288 27.3421C40.8754 27.7775 43.1609 29.1164 43.1609 29.1164C43.1609 29.1164 44.4242 29.6172 44.727 30.3347C45.0297 31.0522 45.2401 31.5611 45.3879 31.7656C45.5357 31.97 45.6137 32.9307 45.6137 32.9307C45.6137 32.9307 46.0488 34.6988 46.3885 34.9983C46.7282 35.2978 46.9735 37.1988 46.9735 37.1988L43.9716 39.5495C43.9716 39.5495 43.7079 43.4599 43.6504 43.6111C43.5929 43.7624 44.7475 47.1433 44.7475 47.1433Z" fill="white"/>
<path opacity="0.1" d="M41.1524 30.9234L41.4234 31.7104L39.9969 33.1412C40.0287 31.6695 40.0646 30.2795 40.0646 30.2795L39.5699 27.2879C39.5699 27.2879 40.0646 27.2879 40.1785 27.4402C40.2285 27.4877 40.2835 27.5295 40.3427 27.5649L41.5558 31.0501L41.1524 30.9234Z" fill="black"/>
<path d="M41.0386 30.6975L41.3105 31.4845L39.884 32.9154C39.9158 31.4426 39.9517 30.0536 39.9517 30.0536L39.4561 27.0621C39.4561 27.0621 39.9517 27.0621 40.0646 27.2144C40.115 27.2617 40.17 27.3038 40.2288 27.3401L41.4429 30.8242L41.0386 30.6975Z" fill="white"/>
<path opacity="0.1" d="M41.0386 22.9105C41.0394 23.2788 40.9812 23.6449 40.8662 23.9949C40.8468 23.9979 40.827 23.997 40.8079 23.9923C40.7889 23.9876 40.771 23.9791 40.7553 23.9673C40.7287 23.0475 40.274 22.1838 39.7147 21.449C39.5577 21.2271 39.3673 21.0306 39.1503 20.8664C38.9308 20.7023 38.6579 20.6254 38.3847 20.6508C38.0768 20.6927 37.8048 20.9012 37.4939 20.9277C37.0834 20.9615 36.716 20.6783 36.3085 20.664C36.1429 20.6656 35.9795 20.7023 35.8293 20.7718C35.679 20.8412 35.5454 20.9418 35.4372 21.0667C35.2232 21.3189 35.0642 21.6127 34.9703 21.9293C34.8089 22.4095 34.721 22.9112 34.7096 23.4174C34.7045 23.7036 34.6768 24.0624 34.4099 24.1666C34.43 23.9561 34.406 23.7438 34.3394 23.5431C34.2728 23.3423 34.1651 23.1576 34.023 23.0005L34.0169 22.9943C34.0169 22.9657 34.0169 22.9391 34.0169 22.9105C34.0089 22.4463 34.0938 21.9851 34.2667 21.5538C34.4396 21.1226 34.697 20.73 35.0238 20.3989C35.3507 20.0678 35.7405 19.8048 36.1704 19.6252C36.6004 19.4457 37.062 19.3533 37.5282 19.3533C37.9945 19.3533 38.4561 19.4457 38.886 19.6252C39.316 19.8048 39.7058 20.0678 40.0327 20.3989C40.3595 20.73 40.6169 21.1226 40.7898 21.5538C40.9626 21.9851 41.0476 22.4463 41.0396 22.9105H41.0386Z" fill="black"/>
<path d="M38.982 17.3577C38.4487 17.1079 37.8421 17.0606 37.2763 17.2248C36.992 17.3087 36.7242 17.4446 36.4358 17.5131C35.82 17.6613 35.1016 17.5008 34.5731 17.8595C34.2796 18.0639 34.1031 18.3869 33.9389 18.7007L33.5284 19.4795C33.3046 19.9057 33.0789 20.339 32.9855 20.8081C32.8921 21.2773 32.9485 21.8026 33.2472 22.1797C33.4647 22.4547 33.786 22.6274 34.022 22.886C34.1634 23.0433 34.2707 23.2279 34.3371 23.4284C34.4035 23.6289 34.4276 23.8409 34.4079 24.0511C34.6757 23.9489 34.7014 23.5891 34.7076 23.303C34.719 22.7967 34.8069 22.2951 34.9682 21.8149C35.0619 21.4981 35.2209 21.2043 35.4352 20.9523C35.5434 20.8274 35.6771 20.7269 35.8273 20.6575C35.9775 20.5881 36.1409 20.5513 36.3065 20.5496C36.717 20.5639 37.0854 20.846 37.4918 20.8122C37.7997 20.7867 38.0727 20.5772 38.3826 20.5363C38.6559 20.5105 38.929 20.5875 39.1482 20.7519C39.3652 20.9159 39.5553 21.1124 39.7116 21.3345C40.272 22.0694 40.7266 22.9309 40.7533 23.8528C40.8693 23.9377 41.0365 23.8273 41.094 23.6965C41.1515 23.5656 41.1535 23.4123 41.2264 23.2876C41.3106 23.1435 41.4717 23.0669 41.5979 22.9585C41.9181 22.6836 41.9982 22.2206 41.9858 21.8006C41.9735 21.3805 41.8914 20.9543 41.9715 20.5414C42.0197 20.2879 42.1285 20.0508 42.188 19.8004C42.2475 19.55 42.2547 19.2689 42.1141 19.0533C41.9089 18.7365 41.4768 18.6741 41.1002 18.6445C40.6722 18.6077 40.2894 18.6547 40.0164 18.2959C39.8883 18.1087 39.7441 17.933 39.5854 17.7706C39.531 17.7175 38.982 17.3802 38.982 17.3577Z" fill="#512E4E"/>
<path opacity="0.1" d="M27.8274 38.9107L26.755 36.9361L26.4153 39.9828C26.4153 39.9828 26.6041 41.336 26.5661 41.5435C26.5282 41.751 27.3399 43.6111 27.3399 43.6111C27.3399 43.6111 30.0216 48.3677 31.1166 48.613L34.8163 45.9802L33.8352 44.7395C33.8352 44.7395 33.4955 44.6076 33.4103 44.7395C33.4103 44.7395 31.5887 41.6181 31.3999 41.3922C31.211 41.1664 31.248 40.7156 31.248 40.7156C31.248 40.7156 30.9647 40.4152 31.0591 40.1331C31.1536 39.851 30.5121 38.8729 30.5121 38.8729L31.0971 38.3281L27.8274 38.9107Z" fill="black"/>
<path d="M26.8114 36.7113L26.5282 36.9361L26.1885 39.9828C26.1885 39.9828 26.3773 41.336 26.3393 41.5435C26.3014 41.751 27.1142 43.6111 27.1142 43.6111C27.1142 43.6111 29.7948 48.3677 30.8898 48.613L34.5905 45.9802L33.6084 44.7395C33.6084 44.7395 33.2687 44.6076 33.1835 44.7395C33.1835 44.7395 31.3619 41.6181 31.1731 41.3922C30.9842 41.1664 31.0222 40.7156 31.0222 40.7156C31.0222 40.7156 30.7389 40.4152 30.8334 40.1331C30.9278 39.851 30.2853 38.8729 30.2853 38.8729L30.8703 38.3281L26.8114 36.7113Z" fill="white"/>
<path opacity="0.1" d="M44.3883 48.6468C44.5936 48.8951 44.4643 50.0102 44.4643 50.0102L43.8978 50.9443C43.8978 50.9443 43.9316 51.5473 43.9337 52.3599L42.9813 52.6563C42.8952 52.683 42.804 52.6889 42.7152 52.6734C42.6263 52.6579 42.5425 52.6215 42.4707 52.5672C42.3989 52.5129 42.3412 52.4423 42.3024 52.3612C42.2635 52.2802 42.2447 52.1911 42.2475 52.1013L42.4117 46.8265L44.6336 47.6727C44.4448 47.8036 44.6521 48.1245 44.6521 48.1245C44.6521 48.1245 44.181 48.3984 44.3883 48.6468Z" fill="black"/>
<path d="M44.5022 48.5333C44.7075 48.7817 44.5782 49.8978 44.5782 49.8978L44.0117 50.8319C44.0117 50.8319 44.0455 51.4339 44.0486 52.2475L43.0788 52.549C42.9945 52.5751 42.9052 52.5807 42.8183 52.5655C42.7313 52.5502 42.6493 52.5145 42.579 52.4613C42.5087 52.4081 42.4522 52.339 42.4142 52.2597C42.3762 52.1803 42.3578 52.0931 42.3604 52.0052L42.5256 46.7141L44.7485 47.5603C44.5587 47.6912 44.766 48.0111 44.766 48.0111C44.766 48.0111 44.297 48.286 44.5022 48.5333Z" fill="white"/>
<path d="M45.2381 46.0191C45.2381 46.0191 45.0872 46.9788 44.7095 47.035C44.3319 47.0912 44.1625 48.5875 43.7859 48.5343C43.4093 48.4812 43.6586 47.1433 43.672 46.8837C43.6853 46.6241 43.2615 45.5489 43.5786 45.3047C43.8957 45.0604 44.8994 45.3047 44.8994 45.3047L45.2381 46.0191Z" fill="#CF6F80"/>
<path opacity="0.1" d="M46.0416 38.6286L46.7538 37.1978C46.7538 37.1978 47.0371 38.2883 47.0371 38.8709C47.0371 39.4534 47.4332 39.5107 47.4332 39.5107C47.4332 39.5107 47.8673 40.0217 47.6385 40.3937C47.4096 40.7657 47.3172 41.6917 47.3172 41.6917C47.3172 41.6917 47.3922 43.4588 47.0525 43.7031C46.7128 43.9474 46.642 44.531 46.642 44.531C46.642 44.531 46.018 45.6399 46.0375 45.9036C46.057 46.1673 45.1693 47.9528 45.1693 47.9528C45.1693 47.9528 45.6034 45.7339 43.0736 44.7752C43.0736 44.7752 43.0541 44.022 43.243 43.8155C43.4318 43.6091 43.7263 43.5151 43.5416 42.4715C43.3569 41.428 43.4882 40.1811 43.4882 39.9307C43.4882 39.6803 44.0547 38.1186 44.0547 38.1186L46.0416 38.6286Z" fill="black"/>
<path d="M46.3495 36.9933L46.9714 37.1978C46.9714 37.1978 47.2557 38.2883 47.2557 38.8709C47.2557 39.4534 47.6518 39.5107 47.6518 39.5107C47.6518 39.5107 48.0859 40.0217 47.8571 40.3937C47.6282 40.7657 47.5369 41.6917 47.5369 41.6917C47.5369 41.6917 47.6118 43.4588 47.2721 43.7031C46.9324 43.9474 46.8565 44.531 46.8565 44.531C46.8565 44.531 46.2335 45.6399 46.253 45.9036C46.2725 46.1673 45.3838 47.9528 45.3838 47.9528C45.3838 47.9528 45.8189 45.7339 43.2882 44.7752C43.2882 44.7752 43.2697 44.022 43.4585 43.8155C43.6473 43.6091 43.9419 43.5151 43.7572 42.4715C43.5724 41.428 43.7038 40.1811 43.7038 39.9307C43.7038 39.6803 44.2703 38.1186 44.2703 38.1186L46.3495 36.9933Z" fill="white"/>
<path opacity="0.1" d="M32.6129 74.0805C32.6129 74.0805 33.6043 73.4601 34.255 73.9108C34.9056 74.3616 32.6129 74.0805 32.6129 74.0805Z" fill="black"/>
<path opacity="0.1" d="M40.3161 72.1621C40.3161 72.1621 41.1936 72.0497 41.9304 72.8397C42.6673 73.6297 40.3161 72.1621 40.3161 72.1621Z" fill="black"/>
<g opacity="0.1">
<path opacity="0.1" d="M41.5999 22.7347C41.4737 22.843 41.3116 22.9207 41.2274 23.0648C41.1556 23.1885 41.1535 23.3408 41.096 23.4737C41.0386 23.6065 40.8713 23.7149 40.7553 23.6311C40.7286 22.7112 40.273 21.8476 39.7137 21.1117C39.5573 20.8896 39.3672 20.6931 39.1503 20.5291C38.9306 20.3647 38.6572 20.2878 38.3836 20.3135C38.0758 20.3554 37.8048 20.5639 37.4939 20.5894C37.0834 20.6242 36.7149 20.3411 36.3075 20.3268C36.1419 20.3284 35.9786 20.3653 35.8285 20.4349C35.6784 20.5045 35.545 20.6053 35.4372 20.7305C35.223 20.9821 35.0639 21.2756 34.9703 21.5921C34.809 22.0723 34.7211 22.5739 34.7096 23.0802C34.7034 23.3653 34.6768 23.721 34.412 23.8273C34.4182 23.9028 34.4182 23.9787 34.412 24.0542C34.6788 23.952 34.7055 23.5922 34.7117 23.306C34.7231 22.7998 34.811 22.2981 34.9723 21.8179C35.066 21.5012 35.225 21.2074 35.4393 20.9553C35.5473 20.8305 35.6808 20.73 35.8308 20.6606C35.9809 20.5911 36.1441 20.5543 36.3096 20.5526C36.7201 20.5669 37.0895 20.849 37.4959 20.8153C37.8038 20.7897 38.0768 20.5802 38.3857 20.5393C38.6593 20.5136 38.9327 20.5905 39.1523 20.755C39.3693 20.919 39.5593 21.1155 39.7157 21.3376C40.275 22.0724 40.7307 22.934 40.7574 23.8559C40.8734 23.9407 41.0406 23.8304 41.0981 23.6995C41.1556 23.5687 41.1576 23.4154 41.2295 23.2907C41.3136 23.1466 41.4758 23.0699 41.602 22.9616C41.9222 22.6867 42.0022 22.2237 41.9899 21.8036C41.9899 21.7903 41.9899 21.777 41.9899 21.7648C41.9704 22.1286 41.8729 22.4996 41.5999 22.7347Z" fill="black"/>
<path opacity="0.1" d="M34.024 22.6621C33.788 22.4036 33.4658 22.2308 33.2492 21.9569C33.0669 21.7145 32.9627 21.4226 32.9506 21.1199C32.9183 21.4981 33.0243 21.8753 33.2492 22.1818C33.4658 22.4567 33.788 22.6294 34.024 22.888C34.2507 23.141 34.3867 23.4616 34.411 23.7997C34.4267 23.5939 34.4005 23.3871 34.334 23.1916C34.2675 22.9961 34.1621 22.8161 34.024 22.6621Z" fill="black"/>
<path opacity="0.1" d="M42.1901 19.5766C42.1295 19.827 42.0218 20.0651 41.9725 20.3176C41.9433 20.4862 41.9327 20.6576 41.9407 20.8286C41.9441 20.7312 41.9548 20.6342 41.9725 20.5383C42.0218 20.2849 42.1295 20.0477 42.1901 19.7973C42.2254 19.6592 42.2368 19.5161 42.2239 19.3742C42.2176 19.4424 42.2063 19.51 42.1901 19.5766Z" fill="black"/>
</g>
<path opacity="0.1" d="M14.1216 78.2362C19.6445 78.2362 24.1216 77.52 24.1216 76.6367C24.1216 75.7533 19.6445 75.0371 14.1216 75.0371C8.59883 75.0371 4.1217 75.7533 4.1217 76.6367C4.1217 77.52 8.59883 78.2362 14.1216 78.2362Z" fill="#9C27B0"/>
<path d="M14.4439 45.9956H13.8004V60.4239H14.4439V45.9956Z" fill="#535461"/>
<path d="M18.4874 60.3799L18.4474 61.0299L18.3899 61.9498L18.3663 62.332L18.3098 63.2519L18.2852 63.6341L18.2277 64.554L17.5791 74.986C17.551 75.4349 17.3521 75.8562 17.023 76.1641C16.6939 76.4721 16.2594 76.6436 15.8078 76.6438H12.4355C11.984 76.6436 11.5496 76.4721 11.2207 76.1641C10.8918 75.8561 10.6931 75.4348 10.6652 74.986L10.0197 64.5468L9.96219 63.627L9.93859 63.2447L9.88112 62.3249L9.85751 61.9426L9.80004 61.0228L9.75899 60.3728C9.75186 60.2477 9.77047 60.1224 9.81369 60.0047C9.8569 59.887 9.9238 59.7794 10.0103 59.6884C10.0968 59.5974 10.201 59.5249 10.3166 59.4754C10.4323 59.426 10.5568 59.4006 10.6826 59.4008H17.5802C17.7055 59.4019 17.8293 59.4285 17.9439 59.4791C18.0585 59.5297 18.1615 59.6031 18.2465 59.6948C18.3316 59.7866 18.3968 59.8947 18.4382 60.0125C18.4796 60.1304 18.4964 60.2554 18.4874 60.3799Z" fill="#3F3D56"/>
<path d="M18.4473 61.0299L18.3899 61.9467H9.85337L9.7959 61.0299H18.4473Z" fill="#9D9CB5"/>
<path d="M18.3663 62.329L18.3098 63.2468H9.93448L9.87701 62.329H18.3663Z" fill="#9D9CB5"/>
<path d="M18.2852 63.63L18.2288 64.5468H10.0155L9.95807 63.63H18.2852Z" fill="#9D9CB5"/>
<path d="M8.81382 51.4032C12.5607 54.1035 14.1247 58.3266 14.1247 58.3266C14.1247 58.3266 9.60917 58.1723 5.86125 55.472C2.11332 52.7718 0.552368 48.5497 0.552368 48.5497C0.552368 48.5497 5.06589 48.703 8.81382 51.4032Z" fill="#9C27B0"/>
<path d="M0.549255 48.5497C0.549255 48.5497 5.23724 51.1406 6.74072 53.2859C8.2442 55.4311 14.1247 58.3266 14.1247 58.3266" stroke="#535461" stroke-width="2" stroke-miterlimit="10"/>
<path d="M11.2327 45.9639C13.2719 47.4326 14.1247 49.7312 14.1247 49.7312C14.1247 49.7312 11.6668 49.6473 9.62659 48.1787C7.58637 46.71 6.7356 44.4104 6.7356 44.4104C6.7356 44.4104 9.19248 44.4942 11.2327 45.9639Z" fill="#9C27B0"/>
<path d="M6.7356 44.4104C6.7356 44.4104 9.2869 45.8208 10.1048 46.988C10.9228 48.1552 14.1247 49.7312 14.1247 49.7312" stroke="#535461" stroke-width="2" stroke-miterlimit="10"/>
<path d="M17.0855 49.6146C14.7425 52.179 14.2468 55.5303 14.2468 55.5303C14.2468 55.5303 17.5504 54.7229 19.8913 52.1575C22.2322 49.5922 22.7299 46.2419 22.7299 46.2419C22.7299 46.2419 19.4284 47.0503 17.0855 49.6146Z" fill="#9C27B0"/>
<path d="M22.732 46.2429C22.732 46.2429 19.6799 48.8716 18.904 50.6827C18.1282 52.4938 14.2468 55.5303 14.2468 55.5303" stroke="#535461" stroke-width="2" stroke-miterlimit="10"/>
<path d="M103.093 48.7122C103.093 48.7122 101.398 40.3171 102.047 39.2725C102.047 39.2725 102.071 38.3016 102.032 37.0639C102.032 37.0169 102.032 36.9698 102.032 36.9218C102.146 36.9976 102.265 37.0659 102.388 37.1262C102.985 37.432 103.671 37.5202 104.327 37.3756L103.814 36.8063C103.691 36.6704 103.563 36.5232 103.536 36.3433C103.509 36.1634 103.583 36.003 103.647 35.8425C104.134 34.6161 104.16 33.0738 103.221 32.1376C102.428 31.3506 102.235 30.3347 101.374 29.6162C100.745 29.0898 100.399 28.3182 100.073 27.5721C99.7964 26.9415 99.5183 26.3058 99.3603 25.6373C99.2371 25.1151 99.1879 24.5744 99.0185 24.0644C98.8492 23.5544 98.5321 23.0587 98.0364 22.8308C97.8599 22.75 97.6639 22.7041 97.5027 22.5967C97.2913 22.4547 97.1641 22.2237 97.0112 22.0213C96.2343 20.9993 93.6327 21.6013 92.4012 22.0162C92.0664 22.1207 91.7563 22.2918 91.4898 22.5191L91.5011 22.5007C91.5104 22.4853 91.5216 22.47 91.5319 22.4547C91.3971 22.5632 91.2807 22.6926 91.1871 22.8379C91.0075 23.121 90.9326 23.4512 90.7827 23.7578C90.6021 24.1206 89.5974 25.1335 90.0295 25.5413C90.0597 25.5687 90.0944 25.5908 90.1321 25.6067C90.2943 25.6739 90.4729 25.6917 90.6452 25.6578L90.6267 25.7017C90.4792 26.0615 90.4035 26.4465 90.404 26.8352C90.404 28.5144 91.7946 29.8758 93.5116 29.8758C93.8344 29.8761 94.1552 29.8268 94.4629 29.7296C94.4701 29.7685 94.4763 29.8073 94.4835 29.8461C94.4835 29.8615 94.4886 29.8768 94.4906 29.8921L94.4362 29.9678C94.4335 29.9631 94.4304 29.9587 94.427 29.9545L92.8158 32.1969C92.5695 32.3696 91.1512 33.3916 91.0711 34.1582C90.987 34.9973 90.9028 35.9795 90.9028 35.9795L90.8915 36.19C90.8211 36.2486 90.7388 36.2913 90.6502 36.3151C90.5616 36.3389 90.4688 36.3433 90.3784 36.328C89.8755 36.2462 89.8755 38.1677 89.8755 38.1677C89.8755 38.1677 89.5409 38.4743 89.3111 38.2086C89.0812 37.9428 88.4736 38.8433 88.4736 38.8433L84.6662 39.0068L84.5789 39.0119L84.3737 38.3792C84.3516 38.3125 84.304 38.2572 84.2411 38.2252C84.1783 38.1932 84.1053 38.1873 84.0381 38.2086C84.0222 38.2138 84.0068 38.2203 83.9919 38.228L83.9776 38.2362L83.9509 38.2546L83.9375 38.2668C83.9302 38.2735 83.9233 38.2806 83.917 38.2883L83.9047 38.3026L83.8985 38.3087C83.8748 38.3414 83.8591 38.3791 83.8527 38.4188C83.8463 38.4586 83.8493 38.4993 83.8616 38.5377L84.0381 39.0804C83.3033 39.2275 82.5521 39.6425 83.1648 40.7852L80.0593 40.2138L81.064 41.054L86.2507 42.12C86.182 42.2426 86.2271 42.4204 86.4416 42.6708C87.3653 43.7511 89.0483 44.0445 89.7257 44.1201C89.9046 44.5186 90.128 44.8957 90.3917 45.2444L90.3332 46.3206C90.3332 46.3206 88.6183 54.5236 88.3043 54.9395C88.4628 54.7607 88.6079 54.5704 88.7384 54.3703C88.2407 56.0556 87.5449 58.3624 87.3622 58.7078C87.0687 59.2598 86.7967 61.4929 87.1313 61.636C87.2339 61.68 87.5274 61.6585 87.9461 61.6268V61.8118L87.9277 68.8221C87.9277 68.8221 88.0118 73.1218 87.7809 73.5317C87.55 73.9415 87.4884 74.8011 87.4884 74.8011C87.4884 74.8011 86.5648 76.4966 85.833 77.1783C85.8281 77.1837 85.8226 77.1884 85.8166 77.1927L85.794 77.0332C85.794 77.0332 84.9145 78.1391 82.9687 78.0767C82.9687 78.0767 81.7978 78.8351 83.5342 78.876C85.2707 78.9169 87.4884 78.8147 87.4884 78.8147C87.4884 78.8147 89.0371 76.4639 90.3343 76.7706V78.552H90.7314V76.7419C90.9156 76.6212 91.0732 76.4644 91.1948 76.2812C91.3163 76.0979 91.3993 75.892 91.4385 75.6759C91.4725 75.4532 91.4476 75.2255 91.3663 75.0152C91.2849 74.805 91.1499 74.6195 90.9746 74.4771C90.8959 74.4062 90.8327 74.3198 90.7891 74.2234C90.7455 74.127 90.7223 74.0227 90.7212 73.917L90.7068 73.9293C90.7068 73.8935 90.6976 73.8567 90.6935 73.8189C90.5795 72.899 90.4369 71.0011 90.9408 69.5968C91.6315 67.6712 91.8408 64.9894 91.3379 63.3929C91.1757 62.8826 91.0424 62.3636 90.9387 61.8384C90.9264 61.772 90.9151 61.7086 90.9049 61.6493C91.2486 61.6956 91.589 61.7639 91.9239 61.8537C93.0888 62.1736 95.637 62.2329 97.8127 62.2155C97.8178 62.2748 97.824 62.3372 97.8311 62.3995C97.8699 62.8329 97.951 63.2614 98.0733 63.6791C98.3463 64.4967 98.4715 68.1015 98.4715 68.1015C98.4715 68.1015 98.8235 71.0655 98.6316 72.2715C98.529 72.9419 98.4264 73.6155 98.3679 74.2921V74.3054C98.3679 74.3054 97.7911 75.9406 97.3693 76.8288C97.3591 76.8513 97.3478 76.8738 97.3375 76.8952C97.2251 76.9054 97.1144 76.9298 97.0081 76.9678C97.0081 76.9678 96.4426 78.0921 95.8792 78.2781C95.3158 78.4641 95.5025 79.0763 96.7782 78.8514C98.0538 78.6266 99.9801 78.4426 99.9801 78.4426L100.063 77.2959L100.455 76.8073L100.353 77.951L100.77 77.8693L100.715 76.4782L101.356 75.679C101.356 75.679 102.131 74.9922 100.98 73.641V73.6707C100.967 73.6513 100.956 73.6308 100.943 73.6114V73.6053C100.752 73.3109 100.6 72.7621 100.878 71.7881C101.381 70.0281 101.673 68.4306 101.673 68.4306C101.673 68.4306 102.796 64.1513 101.447 62.1266H101.506C101.368 61.8417 101.27 61.539 101.216 61.2272C101.209 61.1904 101.203 61.1526 101.197 61.1138C102.196 61.0565 103.176 60.8766 103.975 60.4883C103.972 60.4842 103.491 50.3291 103.093 48.7122ZM90.4153 41.6294V41.6498L90.2101 41.66L90.4153 41.6294ZM89.7113 41.7265C89.6776 41.7339 89.646 41.7489 89.6189 41.7704C89.5307 41.8948 89.4753 42.0392 89.4578 42.1905L89.1376 42.1189C89.1376 42.1189 88.9129 42.0709 88.5896 42.0167L88.4367 41.8634C88.8575 41.8287 89.2946 41.7776 89.7113 41.7265Z" fill="url(#paint1_linear)"/>
<path d="M100.305 76.4925L100.183 77.9408L100.593 77.859L100.531 76.2881L100.305 76.4925Z" fill="#1D2366"/>
<path d="M90.9634 69.6162C90.4697 71.0164 90.6093 72.9062 90.7201 73.824C90.7612 74.1633 90.7992 74.3697 90.7992 74.3697C90.7992 74.3697 90.0613 76.0439 89.9997 76.1072C89.9381 76.1706 87.8281 77.4533 87.8281 77.4533L86.3534 78.3108C86.3534 78.3108 84.8571 77.6577 85.5745 77.4328C85.721 77.3742 85.8531 77.2846 85.9614 77.1702C86.6798 76.4905 87.5818 74.801 87.5818 74.801C87.5818 74.801 87.6434 73.9435 87.8692 73.5357C88.095 73.1279 88.0129 68.8425 88.0129 68.8425L88.0303 61.8568V60.9461L90.8371 60.9666C90.8548 61.2757 90.8953 61.5832 90.9582 61.8864C91.059 62.4098 91.1895 62.9272 91.3492 63.4358C91.8439 65.0292 91.6387 67.6978 90.9634 69.6162Z" fill="#FFB0B1"/>
<path opacity="0.1" d="M90.7992 74.3697C90.7992 74.3697 90.0613 76.0439 89.9997 76.1072C89.9382 76.1706 87.8282 77.4533 87.8282 77.4533L86.3534 78.3108C86.3534 78.3108 84.8571 77.6577 85.5745 77.4328C85.721 77.3742 85.8531 77.2846 85.9614 77.1702L86.025 77.6168L86.5166 77.5964L90.7243 73.826C90.7612 74.1633 90.7992 74.3697 90.7992 74.3697Z" fill="black"/>
<path d="M90.7479 73.9211L86.5166 77.717L86.025 77.7374L85.9224 77.022C85.9224 77.022 85.0624 78.1237 83.1515 78.0624C83.1515 78.0624 82.0041 78.8177 83.7046 78.8586C85.4051 78.8995 87.5767 78.7973 87.5767 78.7973C87.5767 78.7973 89.0936 76.4465 90.3631 76.7532V78.5285H90.753V76.7368C90.9344 76.6153 91.0891 76.4584 91.208 76.2757C91.3268 76.0931 91.4074 75.8884 91.4447 75.6739C91.4785 75.4529 91.4546 75.2271 91.3753 75.018C91.2961 74.8089 91.1641 74.6237 90.9922 74.4801C90.9154 74.4084 90.8541 74.3218 90.8121 74.2257C90.7701 74.1296 90.7482 74.0259 90.7479 73.9211Z" fill="#1D2366"/>
<path d="M100.695 71.7993C100.422 72.7702 100.571 73.317 100.758 73.6104V73.6165C100.998 73.9787 101.164 74.3837 101.249 74.8092L101.265 74.9012L99.3397 77.6965L98.295 78.1053C98.295 78.1053 96.615 77.534 96.9218 77.3705C96.9988 77.3306 97.1189 77.118 97.2564 76.8247C97.6669 75.9406 98.2334 74.3094 98.2334 74.3094V74.2961C98.2929 73.6226 98.3873 72.9511 98.492 72.2827C98.6798 71.0798 98.335 68.1271 98.335 68.1271C98.335 68.1271 98.2119 64.5366 97.945 63.72C97.8246 63.3048 97.7445 62.879 97.7059 62.4485C97.6505 61.9375 97.6382 61.5164 97.6382 61.5164C97.6382 61.5164 98.7445 59.9834 100.772 61.6391C100.935 61.7711 101.077 61.9253 101.196 62.0969C102.597 64.0818 101.469 68.4541 101.469 68.4541C101.469 68.4541 101.187 70.0444 100.695 71.7993Z" fill="#FFB0B1"/>
<path opacity="0.1" d="M101.268 74.9012L99.3428 77.6965L98.2981 78.1053C98.2981 78.1053 96.6181 77.534 96.925 77.3705C97.0019 77.3306 97.122 77.118 97.2595 76.8247C97.9707 76.8186 98.3392 77.4931 98.3392 77.4931L99.2402 77.35C99.2402 77.35 100.429 75.0238 100.695 74.8818C100.962 74.7397 100.737 73.8199 100.737 73.8199V73.5858C100.744 73.594 100.75 73.6032 100.758 73.6114V73.6175C100.998 73.9797 101.164 74.3848 101.249 74.8102L101.268 74.9012Z" fill="black"/>
<path d="M98.4007 77.5534C98.4007 77.5534 97.8876 76.6152 96.9044 76.9617C96.9044 76.9617 96.3513 78.0859 95.7981 78.2679C95.245 78.4498 95.4297 79.063 96.6797 78.8392C97.9297 78.6154 99.8139 78.4304 99.8139 78.4304L99.896 77.2867L101.167 75.6749C101.167 75.6749 101.924 74.9912 100.797 73.6451V73.8792C100.797 73.8792 101.023 74.799 100.756 74.9411C100.489 75.0831 99.3049 77.4104 99.3049 77.4104L98.4007 77.5534Z" fill="#1D2366"/>
<path opacity="0.1" d="M90.8402 60.9645C90.8579 61.2737 90.8984 61.5811 90.9613 61.8844C89.8057 61.7157 88.7333 61.7995 88.0303 61.8547V60.9441L90.8402 60.9645Z" fill="black"/>
<path opacity="0.1" d="M101.31 62.3514C101.31 62.3514 99.6682 62.4312 97.7101 62.4475C97.6547 61.9365 97.6423 61.5154 97.6423 61.5154C97.6423 61.5154 98.7486 59.9823 100.777 61.6381C100.939 61.7701 101.081 61.9242 101.2 62.0959C101.232 62.1831 101.269 62.2684 101.31 62.3514Z" fill="black"/>
<path d="M101.31 62.1675C101.31 62.1675 94.1181 62.5139 91.926 61.9017C89.7339 61.2895 87.5613 61.82 87.2339 61.6779C86.9066 61.5358 87.1724 59.3108 87.4597 58.76C87.7471 58.2091 89.3234 52.6379 89.3234 52.6379L90.8402 44.7619L92.4381 44.3235L92.551 44.2918L95.3353 43.5273L97.3755 42.9662C97.3755 42.9662 101.432 58.7395 101.084 59.9026C100.958 60.348 100.938 60.8165 101.025 61.2711C101.078 61.5816 101.174 61.8832 101.31 62.1675Z" fill="#1D2366"/>
<path d="M85.5529 39.3757C85.5529 39.3757 84.1161 40.9088 85.204 41.7633C86.2918 42.6177 87.0071 41.845 87.0071 41.845L85.5529 39.3757Z" fill="#C7DAF5"/>
<path opacity="0.1" d="M85.5529 39.3757C85.5529 39.3757 84.1161 40.9088 85.204 41.7633C86.2918 42.6177 87.0071 41.845 87.0071 41.845L85.5529 39.3757Z" fill="black"/>
<path d="M97.161 29.2963C97.161 29.2963 96.9927 29.4557 96.7392 29.6908C96.378 30.027 95.8433 30.5187 95.3692 30.9305C94.7123 31.4998 94.1705 31.9178 94.3644 31.5611C94.5584 31.2044 94.5215 30.583 94.425 30.0015C94.4178 29.9627 94.4116 29.9238 94.4045 29.886C94.3246 29.4589 94.2187 29.037 94.0873 28.6227C94.0873 28.6227 95.1485 27.2573 95.7355 26.7187C95.9541 26.5143 96.107 26.4304 96.1163 26.5725C96.1265 26.7636 96.2702 27.1857 96.4488 27.6334C96.4539 27.6477 96.4591 27.661 96.4652 27.6753C96.5843 27.9819 96.7187 28.2967 96.8367 28.5686C97.0173 28.9856 97.161 29.2963 97.161 29.2963Z" fill="#FFB0B1"/>
<path opacity="0.1" d="M96.4652 27.6753C96.3655 28.2095 96.1235 28.7072 95.7646 29.1164C95.4057 29.5256 94.9431 29.8313 94.425 30.0015C94.3434 29.5349 94.2306 29.0743 94.0873 28.6228C94.0873 28.6228 96.0855 26.0523 96.1163 26.5725C96.1235 26.7698 96.2795 27.2072 96.4652 27.6753Z" fill="black"/>
<path opacity="0.1" d="M94.2258 30.6883L94.4844 30.3255C94.4844 30.3255 94.6558 31.3659 95.286 30.907C95.9161 30.4481 95.9469 34.3605 95.9469 34.3605L95.2706 44.4308L90.3835 44.1395L90.522 39.2735L91.0752 36.8206L92.4432 33.2547L93.257 32.0763L94.2258 30.6883Z" fill="black"/>
<path d="M95.9469 34.4229L95.3312 43.5283L95.2665 44.4932L92.5418 44.3306L92.4391 44.3245L90.3866 44.2019L90.5251 39.3349L91.0783 36.8819L92.4463 33.316L93.2601 32.1376L94.2289 30.7445L94.4876 30.3827C94.4876 30.3827 94.6589 31.4232 95.2891 30.9643L95.3024 30.9551C95.9182 30.5667 95.9469 34.4229 95.9469 34.4229Z" fill="#1D2366"/>
<path d="M91.1471 36.0296C91.1471 36.0296 90.9018 36.5406 90.4092 36.4578C89.9166 36.375 89.9176 38.2975 89.9176 38.2975C89.9176 38.2975 89.5902 38.6041 89.3644 38.3384C89.1387 38.0726 88.5434 38.971 88.5434 38.971L84.814 39.1345C84.814 39.1345 86.4734 39.8898 86.1481 42.1751C86.1481 42.1751 91.7823 41.8276 91.967 41.2972C92.1518 40.7668 91.1471 36.0296 91.1471 36.0296Z" fill="white"/>
<path opacity="0.03" d="M91.1471 36.0296C91.1471 36.0296 90.9018 36.5406 90.4092 36.4578C89.9166 36.375 89.9176 38.2975 89.9176 38.2975C89.9176 38.2975 89.5902 38.6041 89.3644 38.3384C89.1387 38.0726 88.5434 38.971 88.5434 38.971L84.814 39.1345C84.814 39.1345 86.4734 39.8898 86.1481 42.1751C86.1481 42.1751 91.7823 41.8276 91.967 41.2972C92.1518 40.7668 91.1471 36.0296 91.1471 36.0296Z" fill="black"/>
<path d="M80.3087 40.3354L81.2918 41.1715L89.385 42.865L88.3813 41.845L80.3087 40.3354Z" fill="white"/>
<path d="M94.2412 31.0103C94.1067 31.2147 93.7219 32.2612 93.4007 33.175C93.1328 33.9364 92.9091 34.6058 92.9091 34.6058C92.9091 34.6058 92.3867 37.9929 92.1199 38.6051C91.8531 39.2173 91.9978 41.6048 91.9978 41.6048L91.0033 47.501C91.0033 47.501 90.5528 50.5417 89.857 52.3578C89.1704 54.1454 88.4059 54.9835 88.3823 55.0101C88.6901 54.5951 90.3681 46.4248 90.3681 46.4248L90.9223 36.1205C90.9223 36.1205 91.0033 35.1414 91.0854 34.3043C91.1675 33.4673 92.8301 32.3246 92.8301 32.3246L94.4331 30.0546C94.5942 30.2693 94.4865 30.6433 94.2412 31.0103Z" fill="white"/>
<path d="M90.0612 44.253C90.0612 44.253 87.7008 44.1508 86.5575 42.7833C85.4143 41.4158 89.2002 42.2375 89.2002 42.2375L90.1844 42.4623L90.0612 44.253Z" fill="#FFB0B1"/>
<path opacity="0.1" d="M101.084 59.9036C100.958 60.349 100.938 60.8176 101.025 61.2722C98.45 61.4541 95.6955 60.7611 95.6955 60.7611C95.1823 61.2313 93.8307 61.9242 93.8307 61.9242L93.0939 52.828C92.6228 51.6015 92.4381 45.1759 92.4381 45.1759C92.4381 45.1759 92.4802 44.8396 92.5407 44.3358C92.5407 44.3235 92.5407 44.3102 92.5459 44.2979C92.7296 42.8906 93.0939 40.2486 93.2725 39.8919C93.5188 39.4013 92.5151 38.0961 92.5151 38.0961L92.9718 34.2175L93.0272 33.7494C93.9898 33.3211 94.7277 31.9536 94.7277 31.9536L95.2942 30.9653C95.91 30.5718 95.9418 34.428 95.9418 34.428L95.326 43.5335L97.3662 42.9723C97.3662 42.9723 101.432 58.7405 101.084 59.9036Z" fill="black"/>
<path d="M103.727 60.5322C100.92 61.9201 95.8186 60.6344 95.8186 60.6344C95.3055 61.1045 93.9539 61.7975 93.9539 61.7975L93.216 52.7012C92.7459 51.4748 92.5612 45.0492 92.5612 45.0492C92.5612 45.0492 93.1544 40.2547 93.4007 39.7652C93.4725 39.6221 93.4377 39.4095 93.3525 39.1805C92.9337 38.0909 92.7797 36.918 92.903 35.7577L93.1 34.0907L93.1544 33.6236C94.1181 33.1944 94.856 31.8269 94.856 31.8269L95.3691 30.9316L96.3133 29.282L96.7607 28.5011L96.8367 28.5696L97.4165 29.0929C97.4165 29.0929 97.6628 29.2973 98.0322 29.6039C98.8358 30.2785 100.224 31.4661 100.941 32.1928C101.571 32.8326 101.77 35.3213 101.827 37.1947C101.865 38.4283 101.843 39.3952 101.843 39.3952C101.208 40.4366 102.869 48.798 102.869 48.798C103.256 50.4139 103.727 60.5322 103.727 60.5322Z" fill="white"/>
<path opacity="0.03" d="M98.3392 31.8064C98.3392 31.8064 96.4129 35.4582 96.6366 36.8462C96.8603 38.2341 97.4966 39.805 97.1898 40.1719C97.0843 40.3109 96.948 40.4238 96.7915 40.5016C96.635 40.5795 96.4626 40.6202 96.2877 40.6206C95.9798 40.6411 95.1588 41.2124 95.1588 41.2737C95.1588 41.335 94.4004 41.335 93.722 41.6212C93.0436 41.9074 92.042 42.0699 92.042 42.0699C92.042 42.0699 90.0921 42.0086 89.9104 42.1925C89.7288 42.3765 89.542 43.4772 89.931 44.3552C90.3199 45.2331 90.752 45.8883 91.0783 46.0078C91.4047 46.1274 93.4757 45.4365 95.1557 45.273C96.8357 45.1095 98.6594 43.7839 98.6594 43.7839C98.6594 43.7839 100.668 43.0684 101.02 41.8655C101.372 40.6625 100.59 34.0509 100.59 34.0509C100.59 34.0509 99.9986 30.9694 98.3392 31.8064Z" fill="black"/>
<path opacity="0.03" d="M98.0928 31.4998C98.0928 31.4998 96.1665 35.1526 96.3923 36.5396C96.618 37.9265 97.2523 39.4984 96.9444 39.8663C96.8394 40.0055 96.7033 40.1185 96.5469 40.1963C96.3905 40.2742 96.2182 40.3148 96.0433 40.315C95.7355 40.3355 94.9144 40.9068 94.9144 40.9681C94.9144 41.0294 94.156 41.0294 93.4777 41.3146C92.7993 41.5997 91.7977 41.7633 91.7977 41.7633C91.7977 41.7633 89.8478 41.7019 89.6671 41.8859C89.4865 42.0699 89.2977 43.1717 89.6877 44.0486C90.0776 44.9255 90.5087 45.5816 90.835 45.7012C91.1614 45.8208 93.2324 45.1299 94.9124 44.9674C96.5924 44.8049 98.4161 43.4772 98.4161 43.4772C98.4161 43.4772 100.423 42.7618 100.771 41.5599C101.119 40.3579 100.341 33.7443 100.341 33.7443C100.341 33.7443 99.7523 30.6638 98.0928 31.4998Z" fill="black"/>
<path d="M98.2786 31.6225C98.2786 31.6225 96.3523 35.2753 96.5781 36.6622C96.8038 38.0491 97.4381 39.621 97.1312 39.988C97.0262 40.1274 96.89 40.2407 96.7334 40.3187C96.5769 40.3968 96.4042 40.4375 96.2291 40.4377C95.9213 40.4581 95.1002 41.0294 95.1002 41.0897C95.1002 41.15 94.3429 41.1511 93.6635 41.4372C92.9841 41.7234 91.9835 41.8859 91.9835 41.8859C91.9835 41.8859 90.0336 41.8246 89.8519 42.0086C89.6703 42.1925 89.4835 43.2943 89.8724 44.1712C90.2614 45.0481 90.6935 45.7043 91.0198 45.8239C91.3462 45.9434 93.4172 45.2525 95.0972 45.089C96.7772 44.9255 98.6008 43.5999 98.6008 43.5999C98.6008 43.5999 100.609 42.8845 100.961 41.6815C101.313 40.4785 100.536 33.8669 100.536 33.8669C100.536 33.8669 99.937 30.7905 98.2786 31.6225Z" fill="white"/>
<path opacity="0.1" d="M98.2365 41.4199C98.2365 41.4199 96.6971 41.1132 97.2328 41.6243C97.7685 42.1353 97.7655 42.5829 98.4212 42.5625C99.077 42.5421 98.2365 41.4199 98.2365 41.4199Z" fill="black"/>
<path opacity="0.1" d="M100.838 52.4151C100.838 52.4151 100.142 52.8842 101.473 53.9655C102.804 55.0468 100.838 52.4151 100.838 52.4151Z" fill="black"/>
<path opacity="0.1" d="M99.5102 56.2713C99.5102 56.3326 99.2639 58.5198 100.185 59.0666C101.107 59.6134 99.5102 56.2713 99.5102 56.2713Z" fill="black"/>
<path d="M84.8776 39.1294C84.1346 39.155 82.5295 39.3808 83.3618 40.9272C84.0976 42.2957 85.3343 41.381 86.0301 40.687C85.8604 40.04 85.4479 39.4825 84.8776 39.1294Z" fill="#FFB0B1"/>
<path d="M86.0393 40.6748L86.0701 40.6431L86.0393 40.6748Z" fill="#FFB0B1"/>
<path opacity="0.1" d="M98.0323 29.6663C97.2441 30.2028 96.5832 30.6556 96.4539 30.7496C96.1008 31.0103 95.4276 32.5403 94.9935 33.3211C94.6476 33.9497 93.5239 34.1112 93.1 34.151L93.1544 33.6839C94.1181 33.2547 94.856 31.8872 94.856 31.8872L96.7607 28.5614L97.4165 29.1552C97.4165 29.1552 97.6628 29.3597 98.0323 29.6663Z" fill="black"/>
<path d="M98.0323 29.6049C97.2441 30.1415 96.5832 30.5943 96.4539 30.6893C96.1008 30.9489 95.4276 32.4789 94.9935 33.2598C94.6476 33.8884 93.5239 34.0498 93.1 34.0897L93.1544 33.6226C94.1181 33.1934 94.856 31.8259 94.856 31.8259L96.7607 28.5001L97.4165 29.0919C97.4165 29.0919 97.6628 29.2942 98.0323 29.6049Z" fill="#DCE7FF"/>
<path d="M96.5155 27.0008C96.5159 27.6143 96.3291 28.2134 95.9798 28.7188C95.5672 29.3163 94.9532 29.7468 94.2493 29.9321C93.5453 30.1173 92.798 30.0452 92.1429 29.7286C91.4878 29.4121 90.9683 28.8722 90.6787 28.2068C90.3892 27.5415 90.3487 26.7948 90.5646 26.1023C90.7805 25.4098 91.2386 24.8173 91.8557 24.4323C92.4727 24.0473 93.2079 23.8954 93.9278 24.0041C94.6477 24.1128 95.3047 24.4749 95.7794 25.0247C96.2542 25.5745 96.5153 26.2756 96.5155 27.0008Z" fill="#FFB0B1"/>
<path opacity="0.1" d="M101.827 37.1957C101.411 36.9404 101.071 36.5773 100.845 36.145C100.674 35.8078 100.56 35.4184 100.268 35.1792C100.004 34.9646 99.6517 34.9125 99.3233 34.8164C98.2437 34.4985 97.3385 33.5174 97.3047 32.3972C97.2883 31.8698 97.4535 31.3434 97.3786 30.8212C97.336 30.5256 97.218 30.2458 97.0358 30.0087C96.9453 29.8952 96.8462 29.7889 96.7392 29.6908C96.5955 29.5559 96.4447 29.4251 96.3133 29.282C96.2305 29.1934 96.1582 29.0956 96.0978 28.9907C96.049 28.9048 96.0094 28.814 95.9798 28.7198C95.7745 28.0944 95.9613 27.3523 95.7355 26.7197L95.7232 26.6849C95.638 26.4601 95.4646 26.2352 95.2234 26.2179C94.9822 26.2005 94.776 26.3998 94.5461 26.4887C94.0648 26.6747 93.5455 26.3579 93.1442 26.0349C92.7429 25.712 92.2903 25.343 91.7803 25.4145C91.4426 25.4626 91.1758 25.6915 90.8649 25.8101C90.7947 25.8371 90.7222 25.858 90.6483 25.8724C90.9115 25.2188 91.395 24.6769 92.0157 24.3398C92.6365 24.0026 93.3558 23.8913 94.05 24.0249C94.7443 24.1586 95.3701 24.5288 95.82 25.072C96.2699 25.6153 96.5158 26.2976 96.5155 27.0018C96.5158 27.2144 96.4935 27.4265 96.4488 27.6344C96.4539 27.6487 96.459 27.662 96.4652 27.6763C96.5842 27.9829 96.7187 28.2977 96.8367 28.5696L97.4165 29.0929C97.4165 29.0929 97.6628 29.2973 98.0323 29.6039C98.8359 30.2785 100.224 31.4661 100.941 32.1928C101.571 32.8346 101.768 35.3223 101.827 37.1957Z" fill="black"/>
<path d="M90.829 23.9428C90.9757 23.6454 91.0486 23.3122 91.2241 23.0301C91.4817 22.6213 91.9312 22.3596 92.393 22.2012C93.5989 21.7873 96.1471 21.1863 96.9086 22.2012C97.0584 22.4056 97.1826 22.6325 97.3899 22.7736C97.5479 22.8809 97.7388 22.9269 97.9123 23.0076C98.3977 23.2345 98.7076 23.7292 98.8728 24.2341C99.0381 24.739 99.0873 25.2806 99.2084 25.8009C99.3634 26.4683 99.6354 27.1009 99.9063 27.7295C100.225 28.4715 100.564 29.2411 101.18 29.7654C102.02 30.4808 102.206 31.4937 102.986 32.2786C103.91 33.2107 103.88 34.7489 103.404 35.9703C103.341 36.1307 103.27 36.2984 103.295 36.469C103.32 36.6397 103.447 36.7951 103.567 36.931L104.072 37.4982C102.877 37.7854 101.526 37.164 100.97 36.0735C100.798 35.7362 100.684 35.3479 100.391 35.1077C100.128 34.893 99.7749 34.8419 99.4476 34.7459C98.3679 34.427 97.4628 33.4448 97.4289 32.3246C97.4125 31.7983 97.5777 31.2719 97.5028 30.7507C97.4611 30.4531 97.3426 30.1714 97.159 29.933C96.8768 29.5661 96.4509 29.3198 96.221 28.911C95.832 28.2272 96.1276 27.3391 95.8474 26.6052C95.7612 26.3804 95.5888 26.1555 95.3476 26.1381C95.1064 26.1208 94.9002 26.3201 94.6693 26.409C94.189 26.595 93.6697 26.2792 93.2684 25.9552C92.8671 25.6312 92.4146 25.2633 91.9035 25.3358C91.5658 25.3829 91.3 25.6118 90.9891 25.7314C90.7592 25.8193 90.2933 25.898 90.0921 25.7048C89.6672 25.3154 90.6514 24.3066 90.829 23.9428Z" fill="#591D4B"/>
<path opacity="0.1" d="M101.255 35.7362C101.082 35.3989 100.969 35.0106 100.676 34.7714C100.413 34.5568 100.06 34.5046 99.7318 34.4086C98.6532 34.0907 97.748 33.1085 97.7131 31.9884C97.6967 31.462 97.8619 30.9346 97.7881 30.4134C97.7451 30.1177 97.6267 29.838 97.4443 29.6008C97.161 29.2339 96.7351 28.9876 96.5063 28.5788C96.1173 27.8961 96.4129 27.0079 96.1317 26.2731C96.0465 26.0492 95.873 25.8244 95.6329 25.806C95.3927 25.7876 95.1844 25.9889 94.9545 26.0778C94.4742 26.2639 93.9539 25.947 93.5537 25.6241C93.1534 25.3011 92.6988 24.9321 92.1887 25.0037C91.8511 25.0517 91.5843 25.2806 91.2743 25.3992C91.0445 25.4871 90.5775 25.5668 90.3764 25.3736C89.9535 24.9648 90.9377 23.9581 91.1142 23.5963C91.261 23.2979 91.3339 22.9657 91.5104 22.6836C91.5196 22.6683 91.5299 22.6529 91.5401 22.6376C91.4081 22.7466 91.2942 22.8756 91.2025 23.0199C91.027 23.302 90.9541 23.6331 90.8074 23.9326C90.6298 24.2944 89.6457 25.3041 90.0695 25.7099C90.2748 25.9041 90.7366 25.8244 90.9665 25.7365C91.2743 25.6169 91.5432 25.388 91.8809 25.3409C92.394 25.2684 92.8456 25.6373 93.2458 25.9603C93.646 26.2833 94.1694 26.6001 94.6477 26.4141C94.8776 26.3252 95.0787 26.1249 95.325 26.1433C95.5713 26.1616 95.7355 26.3855 95.8248 26.6103C96.105 27.3442 95.8094 28.2323 96.1984 28.9161C96.4283 29.3177 96.8542 29.5692 97.1364 29.9381C97.32 30.1765 97.4385 30.4582 97.4802 30.7558C97.5551 31.277 97.3899 31.8034 97.4063 32.3297C97.4402 33.454 98.3453 34.4321 99.425 34.751C99.7503 34.847 100.105 34.8981 100.368 35.1128C100.663 35.3529 100.779 35.7413 100.947 36.0786C101.503 37.1691 102.855 37.7905 104.049 37.5033L103.811 37.2356C102.776 37.2509 101.728 36.6642 101.255 35.7362Z" fill="black"/>
<path opacity="0.1" d="M94.1797 31.0716C94.0452 31.276 93.6604 32.3226 93.3392 33.2363C93.0385 33.1198 92.7655 32.3767 92.7655 32.3767L94.3685 30.1057C94.5327 30.3306 94.4249 30.7036 94.1797 31.0716Z" fill="black"/>
<path d="M94.2413 31.0103C94.1068 31.2147 93.722 32.2612 93.4008 33.175C93.1001 33.0595 92.8271 32.3154 92.8271 32.3154L94.4301 30.0454C94.5943 30.2693 94.4865 30.6433 94.2413 31.0103Z" fill="#DCE7FF"/>
<path d="M84.9207 41.4515L84.032 38.6603C84.0214 38.6276 84.0175 38.5932 84.0204 38.559C84.0233 38.5248 84.0329 38.4915 84.0487 38.461C84.0645 38.4305 84.0863 38.4035 84.1126 38.3814C84.139 38.3593 84.1695 38.3426 84.2023 38.3322C84.2685 38.3117 84.3401 38.318 84.4016 38.3497C84.4631 38.3815 84.5095 38.4362 84.5307 38.5019L85.4195 41.2901L85.3312 41.8736L84.9207 41.4515Z" fill="#BE8B87"/>
<path opacity="0.1" d="M84.1161 38.415C84.1824 38.3941 84.2543 38.4003 84.316 38.4321C84.3778 38.4639 84.4243 38.5188 84.4455 38.5847L85.3343 41.3728L85.2676 41.8103L85.3322 41.8777L85.4205 41.2941L84.5266 38.506C84.5054 38.4403 84.459 38.3856 84.3975 38.3538C84.336 38.322 84.2643 38.3158 84.1982 38.3363C84.1425 38.3543 84.0945 38.3903 84.0617 38.4385C84.0792 38.4292 84.0973 38.4213 84.1161 38.415Z" fill="white"/>
<path d="M84.9207 41.4515L85.4195 41.2941L85.3466 41.7724L85.3312 41.8777L85.1855 41.7265L84.9207 41.4515Z" fill="#EFC8C4"/>
<path d="M85.1855 41.7265C85.1942 41.7155 85.205 41.7065 85.2173 41.6999C85.2245 41.6953 85.2329 41.6929 85.2414 41.6929C85.25 41.6929 85.2583 41.6953 85.2655 41.6999C85.2725 41.7083 85.2784 41.7176 85.283 41.7275C85.2898 41.7388 85.299 41.7484 85.31 41.7556C85.321 41.7629 85.3335 41.7676 85.3466 41.7694L85.3312 41.8716L85.1855 41.7265Z" fill="#727A9C"/>
<path d="M84.0269 39.6517C84.0269 39.6517 85.8095 39.6415 85.3897 40.3968C84.97 41.1521 84.3142 41.243 84.3142 41.243L84.0269 39.6517Z" fill="#FFB0B1"/>
<path d="M72.94 5.75539H72.8631C69.8007 5.75539 67.0924 7.3692 65.5345 9.75058C63.9766 7.3692 61.2683 5.75539 58.2059 5.75539H58.129C55.8307 5.7772 53.634 6.7014 52.0162 8.32715C50.3983 9.95289 49.4901 12.1488 49.4888 14.4377C49.4888 17.28 50.7388 21.313 53.1762 24.6316C57.8201 30.9551 65.5345 36.4874 65.5345 36.4874C65.5345 36.4874 73.249 30.9561 77.8918 24.6316C80.3302 21.313 81.5792 17.28 81.5792 14.4377C81.5779 12.149 80.6698 9.95322 79.0522 8.3275C77.4346 6.70178 75.2381 5.77747 72.94 5.75539ZM71.8389 25.1181C71.4901 25.1168 71.1499 25.0105 70.8629 24.8131C70.5759 24.6158 70.3555 24.3366 70.2307 24.0123H68.3998C68.2793 24.0115 68.162 23.9733 68.0643 23.903C67.9666 23.8326 67.8934 23.7336 67.8549 23.6198L67.2925 21.9324L65.513 28.125C65.4783 28.2442 65.4058 28.349 65.3062 28.4237C65.2066 28.4983 65.0854 28.5387 64.9608 28.5389H64.9249C64.7949 28.5327 64.6709 28.4822 64.5738 28.3959C64.4767 28.3095 64.4122 28.1927 64.3912 28.0647L62.5573 17.0797L61.217 23.58C61.1863 23.7034 61.1149 23.8131 61.0143 23.8915C60.9136 23.9698 60.7895 24.0124 60.6618 24.0123H58.0828C58.0055 24.0155 57.9283 24.0032 57.8559 23.976C57.7835 23.9488 57.7174 23.9072 57.6615 23.8539C57.6057 23.8006 57.5612 23.7366 57.5309 23.6657C57.5005 23.5948 57.4848 23.5185 57.4848 23.4415C57.4848 23.3644 57.5005 23.2881 57.5309 23.2173C57.5612 23.1464 57.6057 23.0823 57.6615 23.029C57.7174 22.9757 57.7835 22.9342 57.8559 22.907C57.9283 22.8797 58.0055 22.8674 58.0828 22.8706H60.2102L62.1088 14.1311C62.14 14.0019 62.2153 13.8875 62.3218 13.8074C62.4283 13.7273 62.5594 13.6866 62.6927 13.6921C62.826 13.6977 62.9533 13.7492 63.0527 13.8378C63.1521 13.9265 63.2175 14.0468 63.2377 14.1781L65.1107 25.3839L66.7055 19.8433C66.7387 19.7266 66.8089 19.6238 66.9056 19.5501C67.0024 19.4764 67.1204 19.4359 67.2422 19.4345H67.2535C67.3741 19.4346 67.4916 19.4725 67.5893 19.543C67.687 19.6135 67.7598 19.7129 67.7974 19.827L68.8145 22.8737H70.2081C70.3072 22.5739 70.4875 22.3072 70.7292 22.103C70.9709 21.8988 71.2645 21.7651 71.5777 21.7166C71.8909 21.6682 72.2114 21.7068 72.5039 21.8283C72.7964 21.9498 73.0496 22.1494 73.2354 22.4051C73.4212 22.6608 73.5324 22.9626 73.5568 23.2773C73.5812 23.592 73.5179 23.9073 73.3737 24.1884C73.2296 24.4695 73.0103 24.7054 72.7399 24.8702C72.4696 25.035 72.1589 25.1222 71.8419 25.1222L71.8389 25.1181Z" fill="#9C27B0"/>
</g>
<defs>
<linearGradient id="paint0_linear" x1="37.069" y1="79.6956" x2="37.069" y2="16.8048" gradientUnits="userSpaceOnUse">
<stop stop-color="#808080" stop-opacity="0.25"/>
<stop offset="0.54" stop-color="#808080" stop-opacity="0.12"/>
<stop offset="1" stop-color="#808080" stop-opacity="0.1"/>
</linearGradient>
<linearGradient id="paint1_linear" x1="22908.4" y1="47452.5" x2="22908.4" y2="15170.1" gradientUnits="userSpaceOnUse">
<stop stop-color="#808080" stop-opacity="0.25"/>
<stop offset="0.54" stop-color="#808080" stop-opacity="0.12"/>
<stop offset="1" stop-color="#808080" stop-opacity="0.1"/>
</linearGradient>
<clipPath id="clip0">
<rect x="0.5" y="0.5" width="113.407" height="80" fill="white"/>
</clipPath>
</defs>
</svg>
