<svg width="68" height="79" viewBox="0 0 68 79" fill="none" xmlns="http://www.w3.org/2000/svg">
<g clip-path="url(#clip0)">
<path d="M44.8962 0.5H2.00692C1.6074 0.500441 1.22436 0.658852 0.941856 0.940478C0.659349 1.2221 0.500442 1.60394 0.5 2.00222V59.78C0.500452 60.1783 0.659362 60.5601 0.941866 60.8417C1.22437 61.1234 1.6074 61.2818 2.00692 61.2822H44.8962C45.2957 61.2818 45.6787 61.1233 45.9612 60.8417C46.2437 60.5601 46.4027 60.1783 46.4031 59.78V2.00222C46.4027 1.60395 46.2437 1.22211 45.9612 0.940489C45.6787 0.658865 45.2957 0.500451 44.8962 0.5Z" fill="#F2F2F2"/>
<path d="M3.33184 2.34889C3.05309 2.3536 2.7876 2.46831 2.59356 2.66786C2.39953 2.86741 2.29278 3.13552 2.29674 3.4134V58.3688C2.29278 58.6467 2.39953 58.9148 2.59356 59.1144C2.7876 59.3139 3.05309 59.4286 3.33184 59.4333H43.5713C43.8501 59.4286 44.1156 59.3139 44.3096 59.1144C44.5036 58.9148 44.6104 58.6467 44.6064 58.3688V3.4134C44.6104 3.13552 44.5036 2.86741 44.3096 2.66786C44.1156 2.46831 43.8501 2.3536 43.5713 2.34889H3.33184Z" fill="white"/>
<path d="M5.42646 4.89111C5.04294 4.89111 4.73096 5.24211 4.73096 5.67359V13.2375C4.73096 13.669 5.04294 14.02 5.42646 14.02H41.4766C41.8601 14.02 42.1721 13.669 42.1721 13.2375V5.67359C42.1721 5.2421 41.8601 4.89111 41.4766 4.89111H5.42646Z" fill="#E6E6E6"/>
<path d="M5.4264 17.6889C5.23937 17.6918 5.06111 17.7685 4.93073 17.9022C4.80035 18.0359 4.72849 18.2157 4.73089 18.4021V34.569C4.72849 34.7554 4.80035 34.9352 4.93073 35.0689C5.06111 35.2026 5.23937 35.2793 5.4264 35.2822H41.4766C41.6636 35.2793 41.8418 35.2026 41.9722 35.0689C42.1026 34.9352 42.1745 34.7554 42.1721 34.569V18.4021C42.1745 18.2157 42.1026 18.0359 41.9722 17.9022C41.8418 17.7685 41.6636 17.6918 41.4766 17.6889H5.4264Z" fill="#E6E6E6"/>
<path d="M37.7093 5.96H9.19373V7.57778H37.7093V5.96Z" fill="white"/>
<path d="M37.7673 9.36889H9.25171V10.12H37.7673V9.36889Z" fill="white"/>
<path d="M37.7673 10.6978H9.25171V11.4489H37.7673V10.6978Z" fill="white"/>
<path d="M37.7673 12.0267H9.25171V12.7778H37.7673V12.0267Z" fill="white"/>
<path d="M26.1365 35.3111H39.2596C39.3432 35.3111 39.4248 35.2864 39.4943 35.2401C39.5638 35.1939 39.6179 35.1281 39.6499 35.0511C39.6818 34.9742 39.6902 34.8895 39.6739 34.8078C39.6576 34.7262 39.6174 34.6511 39.5583 34.5922L31.1594 26.2195C31.0801 26.1406 30.9727 26.0963 30.8607 26.0963C30.7487 26.0963 30.6413 26.1406 30.562 26.2195L28.4734 28.3015C28.3911 28.3836 28.2934 28.4487 28.1859 28.4931C28.0784 28.5375 27.9632 28.5603 27.8469 28.5603C27.7305 28.5603 27.6153 28.5375 27.5078 28.4931C27.4003 28.4487 27.3026 28.3836 27.2203 28.3015L20.6785 21.7802C20.5992 21.7013 20.4918 21.657 20.3798 21.657C20.2678 21.657 20.1604 21.7013 20.0811 21.7802L7.2869 34.5344C7.22783 34.5933 7.18761 34.6684 7.17132 34.7501C7.15503 34.8318 7.1634 34.9164 7.19537 34.9934C7.22735 35.0703 7.28149 35.1361 7.35096 35.1824C7.42042 35.2286 7.50209 35.2533 7.58564 35.2533H26.1533L26.1365 35.3111Z" fill="white"/>
<path d="M10.5268 23.12C11.423 23.12 12.1496 22.3957 12.1496 21.5022C12.1496 20.6087 11.423 19.8844 10.5268 19.8844C9.6305 19.8844 8.90393 20.6087 8.90393 21.5022C8.90393 22.3957 9.6305 23.12 10.5268 23.12Z" fill="white"/>
<path d="M5.4264 39.0667C5.23937 39.0695 5.06111 39.1463 4.93073 39.28C4.80035 39.4137 4.72849 39.5935 4.73089 39.7799V55.9467C4.72849 56.1332 4.80035 56.313 4.93073 56.4467C5.06111 56.5804 5.23937 56.6571 5.4264 56.66H41.4766C41.6636 56.6571 41.8418 56.5804 41.9722 56.4467C42.1026 56.313 42.1745 56.1332 42.1721 55.9467V39.7799C42.1745 39.5935 42.1026 39.4137 41.9722 39.28C41.8418 39.1463 41.6636 39.0695 41.4766 39.0667H5.4264Z" fill="#E6E6E6"/>
<path d="M26.1364 56.6889H39.2595C39.343 56.6889 39.4247 56.6642 39.4942 56.6179C39.5636 56.5716 39.6178 56.5058 39.6497 56.4289C39.6817 56.3519 39.6901 56.2673 39.6738 56.1856C39.6575 56.1039 39.6173 56.0288 39.5582 55.9699L31.1593 47.5972C31.08 47.5184 30.9725 47.4742 30.8606 47.4742C30.7486 47.4742 30.6412 47.5184 30.5619 47.5972L28.4733 49.6793C28.391 49.7613 28.2933 49.8264 28.1858 49.8709C28.0783 49.9153 27.9631 49.9381 27.8467 49.9381C27.7303 49.9381 27.6151 49.9153 27.5076 49.8709C27.4001 49.8264 27.3024 49.7613 27.2201 49.6793L20.6784 43.1579C20.5991 43.0791 20.4917 43.0349 20.3797 43.0349C20.2677 43.0349 20.1603 43.0791 20.0809 43.1579L7.28677 55.9121C7.22771 55.9711 7.18749 56.0461 7.1712 56.1278C7.15491 56.2095 7.16327 56.2941 7.19525 56.3711C7.22722 56.448 7.28136 56.5138 7.35083 56.5601C7.42029 56.6064 7.50196 56.6311 7.58551 56.6311H26.1532L26.1364 56.6889Z" fill="white"/>
<path d="M10.5268 44.4977C11.423 44.4977 12.1496 43.7734 12.1496 42.88C12.1496 41.9865 11.423 41.2622 10.5268 41.2622C9.6305 41.2622 8.90393 41.9865 8.90393 42.88C8.90393 43.7734 9.6305 44.4977 10.5268 44.4977Z" fill="white"/>
<path d="M17.0761 13.7889C16.7995 13.7892 16.5343 13.8989 16.3388 14.0938C16.1432 14.2888 16.0332 14.5532 16.0328 14.8289V72.6066C16.0331 72.8824 16.1432 73.1467 16.3387 73.3417C16.5343 73.5367 16.7995 73.6463 17.0761 73.6466H59.9654C60.242 73.6463 60.5071 73.5367 60.7027 73.3417C60.8983 73.1467 61.0083 72.8824 61.0086 72.6066V14.8289C61.0083 14.5532 60.8983 14.2888 60.7027 14.0938C60.5071 13.8989 60.242 13.7892 59.9654 13.7889H17.0761Z" fill="#E6E6E6"/>
<path d="M18.3431 15.4067C18.0643 15.4114 17.7988 15.5261 17.6048 15.7256C17.4108 15.9252 17.304 16.1933 17.308 16.4712V71.4266C17.304 71.7045 17.4108 71.9726 17.6048 72.1722C17.7988 72.3717 18.0643 72.4864 18.3431 72.4911H58.5826C58.8613 72.4864 59.1268 72.3717 59.3209 72.1722C59.5149 71.9726 59.6216 71.7045 59.6177 71.4266V16.4712C59.6216 16.1933 59.5149 15.9252 59.3209 15.7256C59.1268 15.5261 58.8613 15.4114 58.5826 15.4067H18.3431Z" fill="white"/>
<path d="M24.6397 23.4011C24.5168 23.4012 24.3989 23.45 24.312 23.5366C24.2251 23.6233 24.1762 23.7408 24.176 23.8633V25.9848C24.1762 26.1073 24.2251 26.2248 24.312 26.3115C24.3989 26.3981 24.5168 26.4469 24.6397 26.447H51.9961C52.119 26.4469 52.2369 26.3982 52.3238 26.3115C52.4107 26.2248 52.4596 26.1074 52.4598 25.9848V23.8633C52.4596 23.7408 52.4107 23.6233 52.3238 23.5366C52.2369 23.45 52.119 23.4012 51.9961 23.4011H24.6397Z" fill="#9C27B0"/>
<path d="M24.4658 30.4218C24.435 30.4219 24.4056 30.4341 24.3838 30.4557C24.3621 30.4774 24.3499 30.5068 24.3499 30.5374V31.3656C24.3499 31.3962 24.3621 31.4256 24.3838 31.4472C24.4056 31.4689 24.435 31.4811 24.4658 31.4811H52.2858C52.3166 31.4811 52.346 31.4689 52.3678 31.4473C52.3895 31.4256 52.4017 31.3962 52.4018 31.3656V30.5374C52.4017 30.5068 52.3895 30.4774 52.3678 30.4557C52.346 30.4341 52.3166 30.4219 52.2858 30.4218H24.4658Z" fill="#CCCCCC"/>
<path d="M24.4658 33.1137C24.435 33.1137 24.4056 33.1259 24.3838 33.1476C24.3621 33.1692 24.3499 33.1986 24.3499 33.2292V34.0574C24.3499 34.0881 24.3621 34.1174 24.3838 34.1391C24.4056 34.1608 24.435 34.1729 24.4658 34.173H52.2858C52.3166 34.173 52.346 34.1608 52.3678 34.1391C52.3895 34.1174 52.4017 34.0881 52.4018 34.0574V33.2292C52.4017 33.1986 52.3895 33.1692 52.3678 33.1476C52.346 33.1259 52.3166 33.1137 52.2858 33.1137H24.4658Z" fill="#CCCCCC"/>
<path d="M24.4658 35.8055C24.435 35.8056 24.4056 35.8178 24.3838 35.8394C24.3621 35.8611 24.3499 35.8905 24.3499 35.9211V36.7492C24.3499 36.7799 24.3621 36.8092 24.3838 36.8309C24.4056 36.8526 24.435 36.8647 24.4658 36.8648H52.2858C52.3166 36.8648 52.346 36.8526 52.3678 36.8309C52.3895 36.8092 52.4017 36.7799 52.4018 36.7492V35.9211C52.4017 35.8905 52.3895 35.8611 52.3678 35.8394C52.346 35.8178 52.3166 35.8056 52.2858 35.8055H24.4658Z" fill="#CCCCCC"/>
<path d="M24.4078 41.1826C24.3771 41.1826 24.3476 41.1948 24.3259 41.2165C24.3041 41.2382 24.2919 41.2675 24.2919 41.2982V42.1263C24.2919 42.157 24.3041 42.1863 24.3259 42.208C24.3476 42.2297 24.3771 42.2418 24.4078 42.2419H52.2279C52.2586 42.2418 52.2881 42.2297 52.3098 42.208C52.3315 42.1863 52.3438 42.157 52.3438 42.1263V41.2982C52.3438 41.2675 52.3315 41.2381 52.3098 41.2165C52.2881 41.1948 52.2586 41.1826 52.2279 41.1826H24.4078Z" fill="#CCCCCC"/>
<path d="M24.4078 43.8745C24.3771 43.8745 24.3476 43.8867 24.3259 43.9084C24.3041 43.93 24.2919 43.9594 24.2919 43.99V44.8181C24.2919 44.8488 24.3041 44.8782 24.3259 44.8998C24.3476 44.9215 24.3771 44.9337 24.4078 44.9337H52.2279C52.2586 44.9337 52.2881 44.9215 52.3098 44.8998C52.3315 44.8782 52.3438 44.8488 52.3438 44.8181V43.99C52.3438 43.9594 52.3315 43.93 52.3098 43.9083C52.2881 43.8867 52.2586 43.8745 52.2279 43.8745H24.4078Z" fill="#CCCCCC"/>
<path d="M24.4078 46.5663C24.3771 46.5663 24.3476 46.5785 24.3259 46.6001C24.3041 46.6218 24.2919 46.6512 24.2919 46.6818V47.51C24.2919 47.5406 24.3041 47.57 24.3259 47.5917C24.3476 47.6133 24.3771 47.6255 24.4078 47.6256H52.2279C52.2586 47.6255 52.2881 47.6134 52.3098 47.5917C52.3316 47.57 52.3438 47.5406 52.3438 47.51V46.6818C52.3438 46.6512 52.3316 46.6218 52.3098 46.6001C52.2881 46.5785 52.2586 46.5663 52.2279 46.5663H24.4078Z" fill="#CCCCCC"/>
<path d="M24.4078 49.2714C24.3771 49.2715 24.3476 49.2837 24.3259 49.3053C24.3041 49.327 24.2919 49.3564 24.2919 49.387V50.2152C24.2919 50.2458 24.3041 50.2752 24.3259 50.2968C24.3476 50.3185 24.3771 50.3307 24.4078 50.3307H52.2279C52.2586 50.3307 52.2881 50.3185 52.3098 50.2968C52.3316 50.2752 52.3438 50.2458 52.3438 50.2152V49.387C52.3438 49.3564 52.3316 49.327 52.3098 49.3053C52.2881 49.2836 52.2586 49.2715 52.2279 49.2714H24.4078Z" fill="#CCCCCC"/>
<path d="M24.4078 51.9633C24.3771 51.9633 24.3476 51.9755 24.3259 51.9972C24.3041 52.0188 24.2919 52.0482 24.2919 52.0789V52.907C24.2919 52.9377 24.3041 52.9671 24.3259 52.9887C24.3476 53.0104 24.3771 53.0226 24.4078 53.0226H52.2279C52.2586 53.0226 52.2881 53.0104 52.3098 52.9887C52.3316 52.9671 52.3438 52.9377 52.3438 52.907V52.0789C52.3438 52.0482 52.3316 52.0188 52.3098 51.9972C52.2881 51.9755 52.2586 51.9633 52.2279 51.9633H24.4078Z" fill="#CCCCCC"/>
<path d="M24.4078 54.6552C24.3771 54.6552 24.3476 54.6674 24.3259 54.689C24.3041 54.7107 24.2919 54.7401 24.2919 54.7707V55.5989C24.2919 55.6296 24.3041 55.659 24.3259 55.6806C24.3476 55.7023 24.3771 55.7145 24.4078 55.7145H52.2279C52.2586 55.7145 52.2881 55.7023 52.3098 55.6806C52.3316 55.659 52.3438 55.6296 52.3438 55.5989V54.7707C52.3438 54.7401 52.3316 54.7107 52.3098 54.689C52.2881 54.6674 52.2586 54.6552 52.2279 54.6552H24.4078Z" fill="#CCCCCC"/>
<path d="M24.4078 57.3603C24.3771 57.3604 24.3476 57.3726 24.3259 57.3942C24.3041 57.4159 24.2919 57.4453 24.2919 57.4759V58.3041C24.2919 58.3347 24.3041 58.3641 24.3259 58.3858C24.3476 58.4074 24.3771 58.4196 24.4078 58.4196H52.2279C52.2586 58.4196 52.2881 58.4074 52.3098 58.3858C52.3316 58.3641 52.3438 58.3347 52.3438 58.3041V57.4759C52.3438 57.4453 52.3316 57.4159 52.3098 57.3942C52.2881 57.3725 52.2586 57.3604 52.2279 57.3603H24.4078Z" fill="#CCCCCC"/>
<path d="M24.4078 60.0522C24.3771 60.0522 24.3476 60.0644 24.3259 60.0861C24.3041 60.1077 24.2919 60.1371 24.2919 60.1677V60.9959C24.2919 61.0266 24.3041 61.0559 24.3259 61.0776C24.3476 61.0993 24.3771 61.1114 24.4078 61.1115H52.2279C52.2586 61.1115 52.2881 61.0993 52.3098 61.0776C52.3316 61.0559 52.3438 61.0266 52.3438 60.9959V60.1677C52.3438 60.1371 52.3316 60.1077 52.3098 60.0861C52.2881 60.0644 52.2586 60.0522 52.2279 60.0522H24.4078Z" fill="#CCCCCC"/>
<path d="M24.4078 62.744C24.3771 62.7441 24.3476 62.7563 24.3259 62.7779C24.3041 62.7996 24.2919 62.829 24.2919 62.8596V63.6878C24.2919 63.7184 24.3041 63.7478 24.3259 63.7695C24.3476 63.7911 24.3771 63.8033 24.4078 63.8033H52.2279C52.2586 63.8033 52.2881 63.7911 52.3098 63.7695C52.3316 63.7478 52.3438 63.7184 52.3438 63.6878V62.8596C52.3438 62.829 52.3316 62.7996 52.3098 62.7779C52.2881 62.7563 52.2586 62.7441 52.2279 62.744H24.4078Z" fill="#CCCCCC"/>
<path d="M59.038 78.5C63.7114 78.5 67.5 74.7233 67.5 70.0644C67.5 65.4056 63.7114 61.6289 59.038 61.6289C54.3646 61.6289 50.576 65.4056 50.576 70.0644C50.576 74.7233 54.3646 78.5 59.038 78.5Z" fill="#9C27B0"/>
<path d="M58.2318 73.6253L55.699 70.3791L57.1718 69.2369L58.3711 70.7741L62.4223 66.5109L63.777 67.7903L58.2318 73.6253Z" fill="white"/>
</g>
<defs>
<clipPath id="clip0">
<rect x="0.5" y="0.5" width="67" height="78" fill="white"/>
</clipPath>
</defs>
</svg>
