<svg width="68" height="55" viewBox="0 0 68 55" fill="none" xmlns="http://www.w3.org/2000/svg">
<g clip-path="url(#clip0)">
<path d="M67.5 53.0098C67.0825 55.0828 45.1662 54.9088 45.1994 53.0097C45.6168 50.9368 67.5332 51.1108 67.5 53.0098Z" fill="#E6E6E6"/>
<path d="M42.6608 47.7248C42.5672 48.1894 37.6546 48.1504 37.662 47.7247C37.7556 47.2601 42.6682 47.2991 42.6608 47.7248Z" fill="#E6E6E6"/>
<path d="M55.3416 17.5194C56.1868 17.5194 56.8721 16.8293 56.8721 15.9781C56.8721 15.1268 56.1868 14.4367 55.3416 14.4367C54.4963 14.4367 53.811 15.1268 53.811 15.9781C53.811 16.8293 54.4963 17.5194 55.3416 17.5194Z" fill="#2F2E41"/>
<path d="M53.8131 15.3514L54.7711 15.1149C55.1368 15.1149 55.4979 15.033 55.8283 14.8752C56.1587 14.7174 56.4501 14.4876 56.6815 14.2024C56.9129 13.9172 57.0784 13.5838 57.1661 13.2263C57.2539 12.8688 57.2616 12.4961 57.1887 12.1352C57.1887 11.2739 56.8489 10.4479 56.2442 9.83891C55.6395 9.22989 54.8193 8.88774 53.9641 8.88774H53.964C53.5406 8.88774 53.1213 8.97174 52.73 9.13494C52.3388 9.29814 51.9833 9.53735 51.6839 9.83891C51.3844 10.1405 51.1469 10.4985 50.9849 10.8925C50.8228 11.2865 50.7394 11.7088 50.7394 12.1352V12.1352C50.616 12.5698 50.6081 13.0294 50.7164 13.468C50.8248 13.9066 51.0457 14.3088 51.3569 14.6345C51.6681 14.9601 52.0588 15.1977 52.4899 15.3235C52.9209 15.4494 53.3772 15.4589 53.8131 15.3514Z" fill="#2F2E41"/>
<path d="M59.975 25.2298L57.6067 21.8353L56.321 24.2399L57.7904 25.9662L59.975 25.2298Z" fill="#575A89"/>
<path d="M58.7393 24.8872C58.7393 24.8872 59.4739 24.5789 59.9025 25.1338C60.331 25.6887 61.0657 26.8602 60.8208 27.0451C60.5759 27.2301 59.78 26.4902 59.78 26.4902L58.7393 24.8872Z" fill="#575A89"/>
<path d="M60.7656 27.8956C61.0035 27.7045 60.906 27.1827 60.5477 26.7301C60.1894 26.2774 59.706 26.0653 59.4681 26.2564C59.2301 26.4474 59.3277 26.9692 59.686 27.4219C60.0443 27.8745 60.5276 28.0866 60.7656 27.8956Z" fill="#FFB8B8"/>
<path d="M61.1268 33.4573C61.1268 33.4573 61.0044 37.4032 60.5758 39.6844C60.1473 41.9657 60.8207 50.1658 60.8207 50.1658L59.4739 50.7823L58.6168 49.8575C58.6168 49.8575 58.9229 48.1928 58.4943 47.0214C58.0658 45.8499 57.8821 40.7942 57.8821 40.7942L57.1475 34.0122L61.1268 33.4573Z" fill="#FFB8B8"/>
<path d="M56.1068 34.6287L52.2499 41.719L48.7603 48.1928V49.5492L46.9849 48.9943L47.5971 47.5763C47.5971 47.5763 47.9032 42.0273 50.1071 39.8694L52.005 34.3821L56.1068 34.6287Z" fill="#FFB8B8"/>
<path d="M58.4025 25.103H59.076C59.076 25.103 62.7492 30.1587 62.5656 33.2415L57.3005 35.3994L57.1169 34.9678C57.1169 34.9678 52.7702 35.7693 51.6682 34.8445L53.1987 26.9526L53.3212 25.8429L58.4025 25.103Z" fill="#2F2E41"/>
<path d="M60.0861 50.1041C60.0861 50.1041 59.2291 48.9943 60.2698 48.9327C61.3106 48.871 61.3106 49.5492 61.3106 49.5492L63.637 51.1522C63.637 51.1522 67.4939 52.5703 64.7389 53.0019C64.7389 53.0019 63.5757 53.2485 62.1064 52.6936C61.224 52.3599 60.2936 52.1725 59.3515 52.1387C59.3515 52.1387 58.0046 52.0771 58.0046 51.3989C58.0046 50.7207 58.6617 49.5492 58.6617 49.5492C58.6617 49.5492 59.7188 50.2891 60.0861 50.1041Z" fill="#2F2E41"/>
<path d="M46.8625 48.5628C46.8625 48.5628 48.944 48.1312 49.0052 48.9327C49.0664 49.7342 49.0052 51.0906 49.0052 51.0906C49.0052 51.0906 48.5154 51.7071 48.6379 52.1387C48.7603 52.5703 48.3318 53.9267 46.8625 53.7418C45.3932 53.5568 45.8829 51.4605 45.8829 51.4605L46.8625 49.056V48.5628Z" fill="#2F2E41"/>
<path d="M53.5355 14.4983C54.6682 14.4983 55.5864 13.5736 55.5864 12.4329C55.5864 11.2922 54.6682 10.3674 53.5355 10.3674C52.4028 10.3674 51.4846 11.2922 51.4846 12.4329C51.4846 13.5736 52.4028 14.4983 53.5355 14.4983Z" fill="#FFB8B8"/>
<path d="M54.9129 13.5735L54.9435 17.1187L52.4335 16.2555C52.4335 16.2555 52.7396 14.2209 52.6784 14.0359L54.9129 13.5735Z" fill="#FFB8B8"/>
<path d="M55.3721 16.0705C55.3721 16.0705 52.7396 15.1457 52.4335 15.269C52.1273 15.3923 52.0049 16.0705 52.0049 16.0705C52.0049 16.0705 50.5356 15.7623 50.3519 16.7487C50.1683 17.7352 51.5151 22.0511 51.5151 22.0511L52.862 24.5789C52.862 24.5789 52.1886 25.6271 53.3518 25.997C54.515 26.3669 58.7392 25.1955 58.7392 25.1955C58.7392 25.1955 59.4739 24.3323 58.7392 24.3323C58.7392 24.3323 58.4944 23.5308 58.2495 23.3458C58.0046 23.1609 58.4331 22.8526 58.1882 22.7909C57.9434 22.7293 57.9434 22.606 57.9434 22.606C57.9434 22.606 59.1678 20.9413 58.0658 19.5849C56.9638 18.2285 56.8108 16.9645 56.2598 16.7796C55.7088 16.5946 55.3721 16.0705 55.3721 16.0705Z" fill="#575A89"/>
<path d="M55.0202 30.6146C55.1346 30.3306 54.7957 29.9239 54.2631 29.7062C53.7305 29.4885 53.206 29.5422 53.0915 29.8262C52.9771 30.1101 53.316 30.5168 53.8486 30.7345C54.3812 30.9522 54.9057 30.8985 55.0202 30.6146Z" fill="#FFB8B8"/>
<path d="M51.2703 16.5638H50.4072C50.4072 16.5638 47.9031 22.6676 48.6378 24.5789C49.3724 26.4902 52.0661 29.8196 52.0661 29.8196C52.0661 29.8196 52.9232 31.361 53.5354 31.361C54.1476 31.361 54.8211 29.1414 54.8211 29.1414L52.862 28.2782L50.5356 23.9624L51.6376 20.633L51.2703 16.5638Z" fill="#575A89"/>
<path opacity="0.2" d="M57.974 22.5752L59.3209 24.9797L59.076 25.103L57.974 22.5752Z" fill="black"/>
<path opacity="0.2" d="M55.3995 27.9858L55.2809 28.0165L57.059 34.9828L57.1776 34.9521L55.3995 27.9858Z" fill="black"/>
<path d="M51.056 11.6006L51.4234 10.9224L51.9743 11.2944C52.031 11.3731 52.1058 11.4369 52.1923 11.4802C52.2787 11.5235 52.3743 11.5451 52.4709 11.5432L54.3946 11.5041C54.481 11.5023 54.5661 11.4828 54.6447 11.4468C54.7233 11.4107 54.7937 11.3589 54.8517 11.2944C55.003 11.3509 55.1384 11.4432 55.2467 11.5637C55.3549 11.6841 55.4326 11.8291 55.4734 11.9863L55.7088 12.8953V9.81256H52.0356L51.056 11.6006Z" fill="#2F2E41"/>
<path d="M35.0518 0.5H0.5V45.3307H35.0518V0.5Z" fill="#E6E6E6"/>
<path d="M34.092 6.25343H1.45972V17.4841H34.092V6.25343Z" fill="white"/>
<path d="M34.092 19.4173H1.45972V30.648H34.092V19.4173Z" fill="white"/>
<path d="M34.092 32.5811H1.45972V43.8118H34.092V32.5811Z" fill="white"/>
<path d="M33.2236 3.16959C33.7285 3.16959 34.1377 2.75744 34.1377 2.24904C34.1377 1.74063 33.7285 1.32849 33.2236 1.32849C32.7188 1.32849 32.3096 1.74063 32.3096 2.24904C32.3096 2.75744 32.7188 3.16959 33.2236 3.16959Z" fill="white"/>
<path d="M4.45338 25.9532C4.9582 25.9532 5.36744 25.541 5.36744 25.0326C5.36744 24.5242 4.9582 24.1121 4.45338 24.1121C3.94855 24.1121 3.53931 24.5242 3.53931 25.0326C3.53931 25.541 3.94855 25.9532 4.45338 25.9532Z" fill="#E6E6E6"/>
<path d="M15.6964 24.2962H7.10413V25.769H15.6964V24.2962Z" fill="#E6E6E6"/>
<path d="M20.7009 25.9992C21.2058 25.9992 21.615 25.587 21.615 25.0786C21.615 24.5702 21.2058 24.1581 20.7009 24.1581C20.1961 24.1581 19.7869 24.5702 19.7869 25.0786C19.7869 25.587 20.1961 25.9992 20.7009 25.9992Z" fill="#E6E6E6"/>
<path d="M31.9441 24.3422H23.3518V25.8151H31.9441V24.3422Z" fill="#E6E6E6"/>
<path d="M33.6996 1.89986L33.5704 1.76968L33.2237 2.1189L32.8769 1.76968L32.7477 1.89986L33.0944 2.24908L32.7477 2.59821L32.8769 2.72838L33.2237 2.37917L33.5704 2.72838L33.6996 2.59821L33.353 2.24908L33.6996 1.89986Z" fill="#E6E6E6"/>
<path d="M4.45338 12.7893C4.9582 12.7893 5.36744 12.3772 5.36744 11.8688C5.36744 11.3604 4.9582 10.9482 4.45338 10.9482C3.94855 10.9482 3.53931 11.3604 3.53931 11.8688C3.53931 12.3772 3.94855 12.7893 4.45338 12.7893Z" fill="#E6E6E6"/>
<path d="M32.0125 11.0403H8.79517V12.5132H32.0125V11.0403Z" fill="#E6E6E6"/>
<path d="M28.2192 11.0403H7.37842V12.5132H28.2192V11.0403Z" fill="#9C27B0"/>
<path d="M4.45338 39.117C4.9582 39.117 5.36744 38.7049 5.36744 38.1965C5.36744 37.6881 4.9582 37.2759 4.45338 37.2759C3.94855 37.2759 3.53931 37.6881 3.53931 38.1965C3.53931 38.7049 3.94855 39.117 4.45338 39.117Z" fill="#E6E6E6"/>
<path d="M32.0125 37.368H8.79517V38.8409H32.0125V37.368Z" fill="#E6E6E6"/>
<path d="M20.4268 37.368H7.37842V38.8409H20.4268V37.368Z" fill="#9C27B0"/>
<path d="M9.82348 24.2962H7.10413V25.769H9.82348V24.2962Z" fill="#9C27B0"/>
<path d="M28.7448 24.3422H23.3518V25.8151H28.7448V24.3422Z" fill="#9C27B0"/>
<path d="M42.0548 45.7491C42.0688 47.1996 41.2175 47.7144 40.1614 47.7248C40.1368 47.725 40.1124 47.725 40.0881 47.7247C40.0392 47.7241 39.9907 47.7223 39.9428 47.7194C38.9889 47.6608 38.2431 47.1356 38.2301 45.7867C38.2165 44.3907 39.9711 42.6115 40.1027 42.48L40.1029 42.4798C40.1079 42.4748 40.1105 42.4723 40.1105 42.4723C40.1105 42.4723 42.0407 44.2987 42.0548 45.7491Z" fill="#E6E6E6"/>
</g>
<defs>
<clipPath id="clip0">
<rect x="0.5" y="0.5" width="67" height="54" fill="white"/>
</clipPath>
</defs>
</svg>
