<svg width="117" height="98" viewBox="0 0 117 98" fill="none" xmlns="http://www.w3.org/2000/svg">
<g clip-path="url(#clip0)">
<g opacity="0.5">
<path opacity="0.5" d="M80.4229 11.4108H21.0812V91.3813H80.4229V11.4108Z" fill="url(#paint0_linear)"/>
</g>
<path d="M79.3414 12.4955H21.8544V89.6758H79.3414V12.4955Z" fill="#F2F2F2"/>
<path d="M46.1159 15.7506H26.3358V16.3702H46.1159V15.7506Z" fill="#E0E0E0"/>
<path opacity="0.7" d="M46.1159 18.5394H26.3358V19.159H46.1159V18.5394Z" fill="#9C27B0"/>
<path d="M68.8322 15.7506H49.0521V16.3702H68.8322V15.7506Z" fill="#E0E0E0"/>
<path d="M71.9226 33.4187H52.1425V34.0383H71.9226V33.4187Z" fill="#E0E0E0"/>
<path d="M72.3862 35.1229H52.6061V35.7425H72.3862V35.1229Z" fill="#E0E0E0"/>
<path d="M73.3136 36.8272H53.5334V37.4468H73.3136V36.8272Z" fill="#E0E0E0"/>
<path d="M71.9226 60.8497H52.1425V61.4693H71.9226V60.8497Z" fill="#E0E0E0"/>
<path d="M72.3862 62.5552H52.6061V63.1748H72.3862V62.5552Z" fill="#E0E0E0"/>
<path d="M73.3136 64.2595H53.5334V64.879H73.3136V64.2595Z" fill="#E0E0E0"/>
<g opacity="0.5">
<path opacity="0.5" d="M47.5069 27.0643H26.4899V48.4514H47.5069V27.0643Z" fill="url(#paint1_linear)"/>
</g>
<path d="M47.3073 27.5293H26.6225V47.9863H47.3073V27.5293Z" fill="#F5F5F5"/>
<g opacity="0.5">
<path opacity="0.5" d="M46.644 28.7686H27.3515V42.097H46.644V28.7686Z" fill="url(#paint2_linear)"/>
</g>
<path d="M46.5114 28.9231H27.4842V41.7865H46.5114V28.9231Z" fill="white"/>
<path opacity="0.4" d="M25.8721 41.3228L30.663 33.8825L32.6718 37.1376L36.9978 32.6433L40.7072 37.1376L43.9529 30.4741L52.2979 43.8024L25.2543 42.8724L25.8721 41.3228Z" fill="#9C27B0"/>
<path opacity="0.4" d="M29.5802 32.1783C30.3484 32.1783 30.9712 31.5537 30.9712 30.7832C30.9712 30.0127 30.3484 29.3881 29.5802 29.3881C28.8119 29.3881 28.1891 30.0127 28.1891 30.7832C28.1891 31.5537 28.8119 32.1783 29.5802 32.1783Z" fill="#9C27B0"/>
<g opacity="0.5">
<path opacity="0.5" d="M47.5069 54.4953H26.4899V75.8824H47.5069V54.4953Z" fill="url(#paint3_linear)"/>
</g>
<path d="M47.3073 54.9604H26.6225V75.4174H47.3073V54.9604Z" fill="#F5F5F5"/>
<g opacity="0.5">
<path opacity="0.5" d="M46.644 56.2008H27.3515V69.5292H46.644V56.2008Z" fill="url(#paint4_linear)"/>
</g>
<path d="M46.5114 56.3554H27.4842V69.2188H46.5114V56.3554Z" fill="white"/>
<path opacity="0.4" d="M25.8721 68.7538L30.663 61.3147L32.6718 64.5699L36.9978 60.0755L40.7072 64.5699L43.9529 57.905L52.2979 71.2335L25.2543 70.3034L25.8721 68.7538Z" fill="#BDBDBD"/>
<path opacity="0.4" d="M29.5802 59.6105C30.3484 59.6105 30.9712 58.9859 30.9712 58.2155C30.9712 57.445 30.3484 56.8204 29.5802 56.8204C28.8119 56.8204 28.1891 57.445 28.1891 58.2155C28.1891 58.9859 28.8119 59.6105 29.5802 59.6105Z" fill="#BDBDBD"/>
<g opacity="0.5">
<path opacity="0.5" d="M45.3366 7.45932L29.7938 85.8959L87.9974 97.4962L103.54 19.0596L45.3366 7.45932Z" fill="url(#paint5_linear)"/>
</g>
<path d="M45.8826 8.67464L30.8821 84.3746L87.2665 95.6123L102.267 19.9124L45.8826 8.67464Z" fill="white"/>
<path d="M89.3026 20.9607L49.288 12.9855L49.1675 13.5932L89.1822 21.5684L89.3026 20.9607Z" fill="#E0E0E0"/>
<path d="M77.9163 78.4216L37.9017 70.4465L37.7812 71.0542L77.7959 79.0293L77.9163 78.4216Z" fill="#E0E0E0"/>
<path d="M68.1292 80.1058L37.2089 73.9432L37.0885 74.5509L68.0088 80.7135L68.1292 80.1058Z" fill="#E0E0E0"/>
<path opacity="0.7" d="M48.0366 79.7346L36.517 77.4387L36.3966 78.0464L47.9162 80.3423L48.0366 79.7346Z" fill="#9C27B0"/>
<path opacity="0.7" d="M68.6029 20.4709L48.5961 16.4834L48.4757 17.0911L68.4825 21.0786L68.6029 20.4709Z" fill="#9C27B0"/>
<path d="M83.9775 27.1686L47.9034 19.9789L47.783 20.5866L83.8571 27.7763L83.9775 27.1686Z" fill="#E0E0E0"/>
<path opacity="0.7" d="M56.0018 25.2275L47.211 23.4754L47.0906 24.0832L55.8814 25.8352L56.0018 25.2275Z" fill="#3AD29F"/>
<path d="M86.5317 34.9462L46.517 26.9711L46.3965 27.5788L86.4113 35.5539L86.5317 34.9462Z" fill="#E0E0E0"/>
<g opacity="0.5">
<path opacity="0.5" d="M50.0443 41.7383L45.9477 62.4119L81.8693 69.5713L85.9659 48.8977L50.0443 41.7383Z" fill="url(#paint6_linear)"/>
</g>
<path d="M85.7163 49.0053L50.2481 41.9363L46.2419 62.1538L81.71 69.2228L85.7163 49.0053Z" fill="white"/>
<path d="M85.8391 38.4424L45.8243 30.4672L45.7039 31.0749L85.7186 39.0502L85.8391 38.4424Z" fill="#E0E0E0"/>
<path d="M57.8153 46.2884L53.4199 45.4123L50.4982 60.1566L54.8936 61.0327L57.8153 46.2884Z" fill="#9C27B0"/>
<path d="M64.733 52.7244L60.3376 51.8484L58.3798 61.7285L62.7752 62.6045L64.733 52.7244Z" fill="#3AD29F"/>
<path d="M71.711 58.8541L67.3157 57.9781L66.2614 63.2984L70.6568 64.1744L71.711 58.8541Z" fill="#F55F44"/>
<path d="M80.677 54.9536L76.2816 54.0775L74.1431 64.8698L78.5384 65.7459L80.677 54.9536Z" fill="#FDD835"/>
<g opacity="0.5">
<path opacity="0.5" d="M17.2176 82.238H16.7539V84.8723H17.2176V82.238Z" fill="#47E6B1"/>
<path opacity="0.5" d="M18.3004 83.7877V83.3227H15.6737V83.7877H18.3004Z" fill="#47E6B1"/>
</g>
<path opacity="0.5" d="M71.0635 1.55548C70.9358 1.49969 70.8331 1.39873 70.7748 1.27185C70.7166 1.14497 70.7069 1.00103 70.7477 0.86746C70.7543 0.846916 70.7586 0.82565 70.7603 0.804106C70.7623 0.744325 70.7456 0.685411 70.7124 0.635704C70.6792 0.585997 70.6313 0.548014 70.5754 0.527134C70.5195 0.506254 70.4585 0.503534 70.401 0.519359C70.3435 0.535184 70.2924 0.568752 70.2549 0.615311C70.2422 0.63259 70.2316 0.651302 70.2233 0.671063C70.1677 0.799119 70.067 0.902173 69.9405 0.96059C69.814 1.01901 69.6705 1.0287 69.5373 0.987833C69.5168 0.981123 69.4956 0.97687 69.4741 0.975162C69.4145 0.973104 69.3558 0.9899 69.3062 1.02317C69.2566 1.05645 69.2188 1.10451 69.1979 1.16057C69.1771 1.21662 69.1744 1.27782 69.1902 1.33551C69.206 1.39319 69.2394 1.44444 69.2859 1.48199C69.3031 1.4947 69.3217 1.50533 69.3415 1.51367C69.4691 1.56947 69.5719 1.67042 69.6301 1.7973C69.6884 1.92419 69.6981 2.06812 69.6573 2.2017C69.6506 2.22224 69.6464 2.2435 69.6447 2.26505C69.6426 2.32483 69.6594 2.38374 69.6926 2.43345C69.7257 2.48316 69.7737 2.52114 69.8296 2.54202C69.8854 2.5629 69.9465 2.56562 70.004 2.5498C70.0615 2.53397 70.1126 2.5004 70.1501 2.45384C70.1627 2.43657 70.1733 2.41785 70.1816 2.39809C70.2373 2.27004 70.3379 2.16698 70.4645 2.10856C70.591 2.05015 70.7345 2.04045 70.8677 2.08132C70.8882 2.08803 70.9094 2.09229 70.9309 2.09399C70.9905 2.09605 71.0492 2.07925 71.0988 2.04598C71.1483 2.01271 71.1862 1.96464 71.207 1.90859C71.2279 1.85253 71.2306 1.79133 71.2148 1.73365C71.199 1.67596 71.1655 1.62471 71.1191 1.58716C71.1019 1.57445 71.0832 1.56382 71.0635 1.55548Z" fill="#4D8AF0"/>
<path opacity="0.5" d="M18.8701 14.7128C18.7425 14.657 18.6397 14.5561 18.5815 14.4292C18.5232 14.3023 18.5135 14.1584 18.5543 14.0248C18.561 14.0043 18.5652 13.983 18.5669 13.9615C18.569 13.9017 18.5522 13.8428 18.5191 13.7931C18.4859 13.7433 18.4379 13.7054 18.3821 13.6845C18.3262 13.6636 18.2651 13.6609 18.2076 13.6767C18.1501 13.6925 18.099 13.7261 18.0616 13.7727C18.0489 13.7899 18.0383 13.8087 18.03 13.8284C17.9743 13.9565 17.8737 14.0595 17.7472 14.1179C17.6206 14.1764 17.4771 14.1861 17.3439 14.1452C17.3234 14.1385 17.3022 14.1342 17.2808 14.1325C17.2211 14.1305 17.1624 14.1472 17.1128 14.1805C17.0633 14.2138 17.0254 14.2619 17.0046 14.3179C16.9838 14.374 16.981 14.4352 16.9968 14.4929C17.0126 14.5505 17.0461 14.6018 17.0925 14.6393C17.1097 14.6521 17.1284 14.6627 17.1481 14.671C17.2758 14.7268 17.3785 14.8278 17.4368 14.9547C17.495 15.0815 17.5047 15.2255 17.464 15.359C17.4573 15.3796 17.453 15.4009 17.4513 15.4224C17.4493 15.4822 17.466 15.5411 17.4992 15.5908C17.5324 15.6405 17.5803 15.6785 17.6362 15.6994C17.6921 15.7203 17.7531 15.723 17.8106 15.7071C17.8681 15.6913 17.9192 15.6578 17.9567 15.6112C17.9694 15.5939 17.98 15.5752 17.9883 15.5554C18.0439 15.4274 18.1446 15.3243 18.2711 15.2659C18.3976 15.2075 18.5411 15.1978 18.6743 15.2387C18.6948 15.2454 18.716 15.2496 18.7375 15.2513C18.7971 15.2534 18.8558 15.2366 18.9054 15.2033C18.955 15.1701 18.9928 15.122 19.0137 15.0659C19.0345 15.0099 19.0372 14.9487 19.0214 14.891C19.0056 14.8333 18.9722 14.7821 18.9257 14.7445C18.9085 14.7318 18.8898 14.7212 18.8701 14.7128Z" fill="#FDD835"/>
<path opacity="0.5" d="M14.7388 53.3664C14.6111 53.3106 14.5083 53.2096 14.4501 53.0827C14.3918 52.9559 14.3822 52.8119 14.4229 52.6783C14.4296 52.6578 14.4339 52.6365 14.4356 52.615C14.4376 52.5552 14.4209 52.4963 14.3877 52.4466C14.3545 52.3969 14.3066 52.3589 14.2507 52.338C14.1948 52.3171 14.1338 52.3144 14.0763 52.3302C14.0187 52.3461 13.9676 52.3796 13.9302 52.4262C13.9175 52.4435 13.9069 52.4622 13.8986 52.4819C13.843 52.61 13.7423 52.713 13.6158 52.7715C13.4893 52.8299 13.3458 52.8396 13.2126 52.7987C13.1921 52.792 13.1709 52.7877 13.1494 52.786C13.0898 52.784 13.031 52.8008 12.9815 52.8341C12.9319 52.8673 12.894 52.9154 12.8732 52.9714C12.8524 53.0275 12.8497 53.0887 12.8655 53.1464C12.8813 53.2041 12.9147 53.2553 12.9611 53.2929C12.9784 53.3056 12.997 53.3162 13.0167 53.3246C13.1444 53.3804 13.2472 53.4813 13.3054 53.6082C13.3637 53.7351 13.3733 53.879 13.3326 54.0126C13.3259 54.0331 13.3217 54.0544 13.32 54.0759C13.3179 54.1357 13.3347 54.1946 13.3678 54.2444C13.401 54.2941 13.4489 54.332 13.5048 54.3529C13.5607 54.3738 13.6217 54.3765 13.6793 54.3607C13.7368 54.3449 13.7879 54.3113 13.8253 54.2647C13.838 54.2475 13.8486 54.2288 13.8569 54.209C13.9125 54.0809 14.0132 53.9779 14.1397 53.9195C14.2662 53.861 14.4098 53.8513 14.543 53.8922C14.5634 53.8989 14.5846 53.9032 14.6061 53.9049C14.6657 53.9069 14.7245 53.8902 14.774 53.8569C14.8236 53.8236 14.8615 53.7755 14.8823 53.7195C14.9031 53.6634 14.9058 53.6022 14.89 53.5445C14.8743 53.4869 14.8408 53.4356 14.7944 53.398C14.7771 53.3853 14.7585 53.3747 14.7388 53.3664Z" fill="#FDD835"/>
<path opacity="0.5" d="M43.1797 5.05642C43.6919 5.05642 44.1071 4.64003 44.1071 4.12638C44.1071 3.61274 43.6919 3.19635 43.1797 3.19635C42.6676 3.19635 42.2524 3.61274 42.2524 4.12638C42.2524 4.64003 42.6676 5.05642 43.1797 5.05642Z" fill="#F55F44"/>
<path opacity="0.5" d="M1.42735 41.6548C1.93952 41.6548 2.35471 41.2384 2.35471 40.7247C2.35471 40.2111 1.93952 39.7947 1.42735 39.7947C0.91519 39.7947 0.5 40.2111 0.5 40.7247C0.5 41.2384 0.91519 41.6548 1.42735 41.6548Z" fill="#F55F44"/>
<path opacity="0.5" d="M109.63 16.6806C110.142 16.6806 110.557 16.2642 110.557 15.7506C110.557 15.2369 110.142 14.8206 109.63 14.8206C109.117 14.8206 108.702 15.2369 108.702 15.7506C108.702 16.2642 109.117 16.6806 109.63 16.6806Z" fill="#F55F44"/>
<path opacity="0.5" d="M104.375 44.4221C104.887 44.4221 105.302 44.0057 105.302 43.492C105.302 42.9784 104.887 42.562 104.375 42.562C103.863 42.562 103.447 42.9784 103.447 43.492C103.447 44.0057 103.863 44.4221 104.375 44.4221Z" fill="#4D8AF0"/>
<path opacity="0.5" d="M5.26061 19.8306C5.77277 19.8306 6.18796 19.4142 6.18796 18.9005C6.18796 18.3869 5.77277 17.9705 5.26061 17.9705C4.74844 17.9705 4.33325 18.3869 4.33325 18.9005C4.33325 19.4142 4.74844 19.8306 5.26061 19.8306Z" fill="#47E6B1"/>
<path opacity="0.5" d="M108.307 83.4532C108.819 83.4532 109.234 83.0368 109.234 82.5231C109.234 82.0095 108.819 81.5931 108.307 81.5931C107.795 81.5931 107.379 82.0095 107.379 82.5231C107.379 83.0368 107.795 83.4532 108.307 83.4532Z" fill="#47E6B1"/>
<path opacity="0.5" d="M115.573 56.0374C116.085 56.0374 116.5 55.621 116.5 55.1073C116.5 54.5937 116.085 54.1773 115.573 54.1773C115.061 54.1773 114.645 54.5937 114.645 55.1073C114.645 55.621 115.061 56.0374 115.573 56.0374Z" fill="#47E6B1"/>
<path d="M92.8437 76.6578H69.2833V96.053H92.8437V76.6578Z" fill="url(#paint7_linear)"/>
<path d="M74.1437 72.9478C74.1437 71.1147 74.8698 69.3566 76.1623 68.0603C77.4548 66.7641 79.2078 66.0359 81.0357 66.0359C82.8636 66.0359 84.6166 66.7641 85.9091 68.0603C87.2016 69.3566 87.9277 71.1147 87.9277 72.9478V77.3712H89.8569V72.9478C89.8569 70.6013 88.9275 68.351 87.2731 66.6918C85.6186 65.0325 83.3748 64.1004 81.0351 64.1004C78.6954 64.1004 76.4515 65.0325 74.7971 66.6918C73.1426 68.351 72.2132 70.6013 72.2132 72.9478V77.3712H74.1424L74.1437 72.9478Z" fill="url(#paint8_linear)"/>
<path d="M74.4191 72.8527C74.4191 71.0928 75.1162 69.405 76.3571 68.1606C77.5979 66.9162 79.2809 66.2171 81.0357 66.2171C82.7905 66.2171 84.4734 66.9162 85.7143 68.1606C86.9551 69.405 87.6522 71.0928 87.6522 72.8527V77.1H89.5044V72.8527C89.5044 70.6002 88.6122 68.4399 87.024 66.8471C85.4358 65.2544 83.2817 64.3595 81.0357 64.3595C78.7896 64.3595 76.6356 65.2544 75.0474 66.8471C73.4592 68.4399 72.567 70.6002 72.567 72.8527V77.1H74.4191V72.8527Z" fill="#F5F5F5"/>
<path d="M92.548 76.8352H69.5234V95.6805H92.548V76.8352Z" fill="#9C27B0"/>
<path d="M92.548 76.8352H69.5234V95.6805H92.548V76.8352Z" fill="#F5F5F5"/>
<path d="M92.548 80.5503H69.5234V91.9629H92.548V80.5503Z" fill="#9C27B0"/>
<path d="M82.7236 84.0981C82.7239 83.8217 82.6568 83.5495 82.528 83.3051C82.3992 83.0608 82.2128 82.8518 81.9849 82.6964C81.7571 82.5409 81.4947 82.4438 81.2208 82.4135C80.9469 82.3832 80.6698 82.4206 80.4136 82.5224C80.1574 82.6243 79.93 82.7875 79.7512 82.9978C79.5724 83.2081 79.4477 83.4591 79.3879 83.7289C79.3281 83.9987 79.3351 84.2791 79.4083 84.5455C79.4815 84.812 79.6185 85.0564 79.8076 85.2575V88.8699C79.8076 89.1966 79.937 89.5098 80.1673 89.7408C80.3976 89.9718 80.71 90.1015 81.0357 90.1015C81.3614 90.1015 81.6737 89.9718 81.904 89.7408C82.1343 89.5098 82.2637 89.1966 82.2637 88.8699V85.2613C82.5602 84.9471 82.7248 84.5307 82.7236 84.0981Z" fill="url(#paint9_linear)"/>
<path opacity="0.2" d="M82.4911 84.3997C82.4914 84.1613 82.4335 83.9266 82.3225 83.7158C82.2115 83.5051 82.0507 83.3249 81.8542 83.1908C81.6577 83.0568 81.4315 82.9731 81.1953 82.9469C80.9591 82.9208 80.7201 82.953 80.4992 83.0409C80.2783 83.1287 80.0822 83.2695 79.9281 83.4508C79.7739 83.6322 79.6663 83.8487 79.6148 84.0813C79.5633 84.314 79.5694 84.5557 79.6325 84.7855C79.6956 85.0153 79.8139 85.226 79.9769 85.3994V88.5139C79.9769 88.7955 80.0885 89.0656 80.287 89.2647C80.4856 89.4638 80.7549 89.5757 81.0357 89.5757C81.3164 89.5757 81.5857 89.4638 81.7843 89.2647C81.9828 89.0656 82.0944 88.7955 82.0944 88.5139V85.3994C82.3493 85.1293 82.4913 84.7715 82.4911 84.3997Z" fill="black"/>
</g>
<defs>
<linearGradient id="paint0_linear" x1="50.7514" y1="91.3813" x2="50.7514" y2="11.4108" gradientUnits="userSpaceOnUse">
<stop stop-color="#808080" stop-opacity="0.25"/>
<stop offset="0.54" stop-color="#808080" stop-opacity="0.12"/>
<stop offset="1" stop-color="#808080" stop-opacity="0.1"/>
</linearGradient>
<linearGradient id="paint1_linear" x1="6097.9" y1="8120.76" x2="6097.9" y2="4510.85" gradientUnits="userSpaceOnUse">
<stop stop-color="#808080" stop-opacity="0.25"/>
<stop offset="0.54" stop-color="#808080" stop-opacity="0.12"/>
<stop offset="1" stop-color="#808080" stop-opacity="0.1"/>
</linearGradient>
<linearGradient id="paint2_linear" x1="5600.56" y1="4404.35" x2="5600.56" y2="3002.34" gradientUnits="userSpaceOnUse">
<stop stop-color="#808080" stop-opacity="0.25"/>
<stop offset="0.54" stop-color="#808080" stop-opacity="0.12"/>
<stop offset="1" stop-color="#808080" stop-opacity="0.1"/>
</linearGradient>
<linearGradient id="paint3_linear" x1="6097.9" y1="12778.5" x2="6097.9" y2="9168.36" gradientUnits="userSpaceOnUse">
<stop stop-color="#808080" stop-opacity="0.25"/>
<stop offset="0.54" stop-color="#808080" stop-opacity="0.12"/>
<stop offset="1" stop-color="#808080" stop-opacity="0.1"/>
</linearGradient>
<linearGradient id="paint4_linear" x1="5600.56" y1="7317.38" x2="5600.56" y2="5915.37" gradientUnits="userSpaceOnUse">
<stop stop-color="#808080" stop-opacity="0.25"/>
<stop offset="0.54" stop-color="#808080" stop-opacity="0.12"/>
<stop offset="1" stop-color="#808080" stop-opacity="0.1"/>
</linearGradient>
<linearGradient id="paint5_linear" x1="43760.7" y1="54870.2" x2="51101.6" y2="18037.4" gradientUnits="userSpaceOnUse">
<stop stop-color="#808080" stop-opacity="0.25"/>
<stop offset="0.54" stop-color="#808080" stop-opacity="0.12"/>
<stop offset="1" stop-color="#808080" stop-opacity="0.1"/>
</linearGradient>
<linearGradient id="paint6_linear" x1="9935.85" y1="22740.8" x2="11130" y2="16749.2" gradientUnits="userSpaceOnUse">
<stop stop-color="#808080" stop-opacity="0.25"/>
<stop offset="0.54" stop-color="#808080" stop-opacity="0.12"/>
<stop offset="1" stop-color="#808080" stop-opacity="0.1"/>
</linearGradient>
<linearGradient id="paint7_linear" x1="15092.8" y1="14703" x2="15092.8" y2="11734.1" gradientUnits="userSpaceOnUse">
<stop stop-color="#808080" stop-opacity="0.25"/>
<stop offset="0.54" stop-color="#808080" stop-opacity="0.12"/>
<stop offset="1" stop-color="#808080" stop-opacity="0.1"/>
</linearGradient>
<linearGradient id="paint8_linear" x1="13805.6" y1="9006.77" x2="13805.6" y2="7616.92" gradientUnits="userSpaceOnUse">
<stop stop-color="#808080" stop-opacity="0.25"/>
<stop offset="0.54" stop-color="#808080" stop-opacity="0.12"/>
<stop offset="1" stop-color="#808080" stop-opacity="0.1"/>
</linearGradient>
<linearGradient id="paint9_linear" x1="2707.03" y1="6043.99" x2="2707.03" y2="5576.33" gradientUnits="userSpaceOnUse">
<stop stop-color="#808080" stop-opacity="0.25"/>
<stop offset="0.54" stop-color="#808080" stop-opacity="0.12"/>
<stop offset="1" stop-color="#808080" stop-opacity="0.1"/>
</linearGradient>
<clipPath id="clip0">
<rect x="0.5" y="0.5" width="116" height="97" fill="white"/>
</clipPath>
</defs>
</svg>
